<svg viewBox="0 0 900 480" xmlns="http://www.w3.org/2000/svg"><rect width="900" height="480" fill="#dce9f2"/><rect y="298" width="900" height="480" fill="#e8e4dd"/><polygon points="-70,298 -70,272 -52,273 -34,271 -17,272 0,272 16,272 32,272 48,273 63,272 78,272 92,272 107,272 121,274 134,275 148,274 161,276 174,274 187,275 200,273 212,276 225,275 237,273 249,276 261,276 272,274 284,278 296,278 307,275 318,274 330,272 341,267 352,264 363,265 374,264 385,260 396,259 407,252 418,249 428,249 439,250 450,250 461,254 472,258 482,261 493,263 504,261 515,262 526,264 537,266 548,267 559,266 570,262 582,258 593,253 604,254 616,253 628,251 639,250 651,250 663,249 675,251 688,251 700,253 713,255 726,258 739,254 752,255 766,255 779,259 793,259 808,258 822,253 837,252 852,252 868,252 884,252 900,252 917,252 934,252 952,251 970,251 970,298" fill="#6c8494"/><polyline points="-70,272 -52,273 -34,271 -17,272 0,272 16,272 32,272 48,273 63,272 78,272 92,272 107,272 121,274 134,275 148,274 161,276 174,274 187,275 200,273 212,276 225,275 237,273 249,276 261,276 272,274 284,278 296,278 307,275 318,274 330,272 341,267 352,264 363,265 374,264 385,260 396,259 407,252 418,249 428,249 439,250 450,250 461,254 472,258 482,261 493,263 504,261 515,262 526,264 537,266 548,267 559,266 570,262 582,258 593,253 604,254 616,253 628,251 639,250 651,250 663,249 675,251 688,251 700,253 713,255 726,258 739,254 752,255 766,255 779,259 793,259 808,258 822,253 837,252 852,252 868,252 884,252 900,252 917,252 934,252 952,251 970,251" fill="none" stroke="#3d5a6b" stroke-width="1.6"/><g fill="#73726f" stroke="#4a5058" stroke-linejoin="round" stroke-width="0.5"><polygon points="434,280 408,279 408,306 434,306 434,280"/></g><g fill="#908f8b" stroke="#4a5058" stroke-linejoin="round" stroke-width="0.5"><polygon points="476,306 482,306 482,283 476,283 476,306"/></g><g fill="#aeaca6" stroke="#4a5058" stroke-linejoin="round" stroke-width="0.5"><polygon points="532,278 516,278 513,279 516,279 503,283 516,283 532,278"/></g><g fill="#73726f" stroke="#4a5058" stroke-linejoin="round" stroke-width="0.5"><polygon points="408,306 434,306 434,283 408,282 408,306"/></g><g fill="#9f9e98" stroke="#4a5058" stroke-linejoin="round" stroke-width="0.5"><polygon points="498,285 496,283 497,283 495,281 482,280 488,285 498,285"/></g><g fill="#73726f" stroke="#4a5058" stroke-linejoin="round" stroke-width="0.5"><polygon points="503,306 503,283 516,279 514,278 501,283 501,306 503,306"/></g><g fill="#908f8b" stroke="#4a5058" stroke-linejoin="round" stroke-width="0.5"><polygon points="501,306 501,283 496,283 498,285 498,306 501,306"/><polygon points="498,306 501,306 501,283 498,283 498,306"/></g><g fill="#73726f" stroke="#4a5058" stroke-linejoin="round" stroke-width="0.5"><polygon points="542,306 542,284 532,278 516,283 516,306 542,306"/><polygon points="501,306 503,306 503,283 501,283 501,306"/></g><g fill="#908f8b" stroke="#4a5058" stroke-linejoin="round" stroke-width="0.5"><polygon points="488,306 488,285 482,280 476,285 476,306 488,306"/></g><g fill="#aeaca6" stroke="#4a5058" stroke-linejoin="round" stroke-width="0.5"><polygon points="329,277 337,282 354,282 346,278 329,277"/></g><g fill="#908f8b" stroke="#4a5058" stroke-linejoin="round" stroke-width="0.5"><polygon points="370,192 374,191 374,184 386,181 386,188 386,188 386,177 370,181 370,192"/><polygon points="482,306 488,306 488,283 482,283 482,306"/></g><g fill="#73726f" stroke="#4a5058" stroke-linejoin="round" stroke-width="0.5"><polygon points="488,306 498,306 498,285 488,285 488,306"/><polygon points="488,306 498,306 498,283 488,283 488,306"/></g><g fill="#908f8b" stroke="#4a5058" stroke-linejoin="round" stroke-width="0.5"><polygon points="337,307 337,282 329,277 324,283 324,306 337,307"/></g><g fill="#73726f" stroke="#4a5058" stroke-linejoin="round" stroke-width="0.5"><polygon points="516,306 542,306 542,283 516,283 516,306"/></g><g fill="#908f8b" stroke="#4a5058" stroke-linejoin="round" stroke-width="0.5"><polygon points="503,306 516,306 516,283 503,283 503,306"/></g><g fill="#73726f" stroke="#4a5058" stroke-linejoin="round" stroke-width="0.5"><polygon points="354,282 337,282 337,307 354,307 354,282"/></g><g fill="#908f8b" stroke="#4a5058" stroke-linejoin="round" stroke-width="0.5"><polygon points="329,307 337,307 337,280 329,281 329,307"/><polygon points="450,307 498,307 498,275 450,276 450,307"/></g><g fill="#73726f" stroke="#4a5058" stroke-linejoin="round" stroke-width="0.5"><polygon points="337,307 354,307 354,281 337,280 337,307"/></g><g fill="#908f8b" stroke="#4a5058" stroke-linejoin="round" stroke-width="0.5"><polygon points="516,283 503,283 503,306 516,306 516,283"/></g><g fill="#aeaca6" stroke="#4a5058" stroke-linejoin="round" stroke-width="0.5"><polygon points="616,255 628,255 607,257 604,257 593,257 597,257 586,258 575,257 616,255"/></g><g fill="#73726f" stroke="#4a5058" stroke-linejoin="round" stroke-width="0.5"><polygon points="406,179 388,176 388,187 389,187 389,308 406,308 406,179"/><polygon points="389,308 406,308 406,197 389,195 389,308"/></g><g fill="#908f8b" stroke="#4a5058" stroke-linejoin="round" stroke-width="0.5"><polygon points="575,307 616,307 616,259 575,261 575,307"/></g><g fill="#73726f" stroke="#4a5058" stroke-linejoin="round" stroke-width="0.5"><polygon points="272,307 318,307 318,283 304,278 291,283 291,286 272,286 272,307"/><polygon points="272,307 318,307 318,283 272,283 272,307"/></g><g fill="#9f9e98" stroke="#4a5058" stroke-linejoin="round" stroke-width="0.5"><polygon points="532,266 533,269 557,270 542,267 532,266"/></g><g fill="#908f8b" stroke="#4a5058" stroke-linejoin="round" stroke-width="0.5"><polygon points="384,177 384,188 388,187 388,176 384,177"/><polygon points="263,307 272,307 272,283 263,283 263,307"/></g><g fill="#aeaca6" stroke="#4a5058" stroke-linejoin="round" stroke-width="0.5"><polygon points="616,259 628,260 586,262 575,261 616,259"/></g><g fill="#73726f" stroke="#4a5058" stroke-linejoin="round" stroke-width="0.5"><polygon points="557,270 533,269 533,307 557,307 557,270"/><polygon points="374,180 374,187 386,188 386,181 374,180"/></g><g fill="#908f8b" stroke="#4a5058" stroke-linejoin="round" stroke-width="0.5"><polygon points="498,266 450,269 450,307 498,307 498,266"/></g><g fill="#73726f" stroke="#4a5058" stroke-linejoin="round" stroke-width="0.5"><polygon points="637,266 627,265 627,307 637,307 637,266"/></g><g fill="#908f8b" stroke="#4a5058" stroke-linejoin="round" stroke-width="0.5"><polygon points="411,171 411,179 418,177 418,169 411,171"/><polygon points="272,286 263,286 263,307 272,307 272,286"/></g><g fill="#73726f" stroke="#4a5058" stroke-linejoin="round" stroke-width="0.5"><polygon points="627,307 637,307 637,268 627,267 627,307"/></g><g fill="#908f8b" stroke="#4a5058" stroke-linejoin="round" stroke-width="0.5"><polygon points="518,307 533,307 533,272 518,273 518,307"/><polygon points="616,255 575,257 575,306 616,307 616,255"/></g><g fill="#73726f" stroke="#4a5058" stroke-linejoin="round" stroke-width="0.5"><polygon points="533,307 557,307 557,273 533,272 533,307"/></g><g fill="#908f8b" stroke="#4a5058" stroke-linejoin="round" stroke-width="0.5"><polygon points="426,170 426,178 431,177 431,169 426,170"/></g><g fill="#73726f" stroke="#4a5058" stroke-linejoin="round" stroke-width="0.5"><polygon points="418,169 418,177 426,178 426,170 418,169"/></g><g fill="#908f8b" stroke="#4a5058" stroke-linejoin="round" stroke-width="0.5"><polygon points="395,308 401,308 401,148 395,150 395,308"/><polygon points="533,269 518,270 518,307 533,307 533,269"/><polygon points="401,176 395,178 395,308 401,308 401,176"/></g><g fill="#73726f" stroke="#4a5058" stroke-linejoin="round" stroke-width="0.5"><polygon points="406,177 401,176 401,308 406,308 406,177"/></g><g fill="#908f8b" stroke="#4a5058" stroke-linejoin="round" stroke-width="0.5"><polygon points="285,255 285,266 295,265 295,254 285,255"/></g><g fill="#73726f" stroke="#4a5058" stroke-linejoin="round" stroke-width="0.5"><polygon points="401,308 406,308 406,149 401,148 401,308"/></g><g fill="#8e8d89" stroke="#4a5058" stroke-linejoin="round" stroke-width="0.5"><polygon points="406,308 417,308 417,145 406,149 406,308"/></g><g fill="#716f6d" stroke="#4a5058" stroke-linejoin="round" stroke-width="0.5"><polygon points="284,308 334,307 334,260 284,258 284,308"/><polygon points="284,308 334,307 334,268 330,268 330,256 295,254 295,265 287,265 287,275 284,275 284,308"/><polygon points="628,255 616,255 616,307 628,307 628,255"/></g><g fill="#adaba4" stroke="#4a5058" stroke-linejoin="round" stroke-width="0.5"><polygon points="554,281 533,281 572,280 593,280 581,281 585,281 561,281 557,281 554,281"/><polygon points="557,285 554,285 533,284 572,283 593,284 581,284 585,284 561,285 557,285"/></g><g fill="#8e8d89" stroke="#4a5058" stroke-linejoin="round" stroke-width="0.5"><polygon points="277,266 277,276 287,275 287,265 277,266"/><polygon points="417,174 406,177 406,308 417,308 417,174"/><polygon points="425,308 426,308 426,146 425,147 425,308"/></g><g fill="#716f6d" stroke="#4a5058" stroke-linejoin="round" stroke-width="0.5"><polygon points="616,307 628,307 628,260 616,259 616,307"/></g><g fill="#8e8d89" stroke="#4a5058" stroke-linejoin="round" stroke-width="0.5"><polygon points="274,307 284,308 284,258 274,259 274,307"/></g><g fill="#716f6d" stroke="#4a5058" stroke-linejoin="round" stroke-width="0.5"><polygon points="506,267 498,266 498,307 506,307 506,267"/><polygon points="417,308 425,308 425,175 417,174 417,308"/><polygon points="417,308 425,308 425,147 417,145 417,308"/><polygon points="585,281 581,281 581,308 585,307 585,281"/><polygon points="581,308 585,307 585,284 581,284 581,308"/><polygon points="498,307 506,307 506,275 498,275 498,307"/></g><g fill="#8e8d89" stroke="#4a5058" stroke-linejoin="round" stroke-width="0.5"><polygon points="284,275 274,276 274,307 284,308 284,275"/><polygon points="510,308 511,308 511,145 510,146 510,308"/><polygon points="511,157 510,158 510,308 511,308 511,157"/></g><g fill="#adaba4" stroke="#4a5058" stroke-linejoin="round" stroke-width="0.5"><polygon points="441,143 424,146 455,136 473,133 441,143"/></g><g fill="#716f6d" stroke="#4a5058" stroke-linejoin="round" stroke-width="0.5"><polygon points="491,153 489,153 489,308 491,308 491,153"/><polygon points="489,308 491,308 491,145 489,145 489,308"/></g><g fill="#adaba4" stroke="#4a5058" stroke-linejoin="round" stroke-width="0.5"><polygon points="511,157 514,156 516,157 521,155 527,157 528,156 529,156 518,159 513,159 511,159 510,158 511,157"/></g><g fill="#8e8d89" stroke="#4a5058" stroke-linejoin="round" stroke-width="0.5"><polygon points="511,308 514,308 514,144 511,145 511,308"/><polygon points="511,308 514,308 514,156 511,157 511,308"/></g><g fill="#716f6d" stroke="#4a5058" stroke-linejoin="round" stroke-width="0.5"><polygon points="529,156 528,156 528,308 529,308 529,156"/><polygon points="528,308 529,308 529,144 528,144 528,308"/></g><g fill="#adaba4" stroke="#4a5058" stroke-linejoin="round" stroke-width="0.5"><polygon points="370,200 303,192 428,156 500,170 389,195 406,197 386,202 370,200"/></g><g fill="#8e8d89" stroke="#4a5058" stroke-linejoin="round" stroke-width="0.5"><polygon points="455,136 424,146 424,176 425,175 425,308 426,308 426,147 455,138 455,136"/></g><g fill="#716f6d" stroke="#4a5058" stroke-linejoin="round" stroke-width="0.5"><polygon points="482,308 490,308 490,145 482,143 482,308"/></g><g fill="#8e8d89" stroke="#4a5058" stroke-linejoin="round" stroke-width="0.5"><polygon points="533,307 572,308 572,283 533,284 533,307"/></g><g fill="#adaba4" stroke="#4a5058" stroke-linejoin="round" stroke-width="0.5"><polygon points="476,131 488,127 506,121 509,121 511,121 563,134 560,134 562,135 528,144 529,144 518,147 513,147 511,146 510,146 511,145 514,144 494,139 482,143 490,145 489,145 491,145 448,157 446,157 445,157 412,151 409,152 395,150 401,148 406,149 417,145 425,147 426,146 421,145 455,135 459,136 476,131"/></g><g fill="#716f6d" stroke="#4a5058" stroke-linejoin="round" stroke-width="0.5"><polygon points="490,308 490,144 473,133 455,136 455,138 482,143 482,308 490,308"/></g><g fill="#8e8d89" stroke="#4a5058" stroke-linejoin="round" stroke-width="0.5"><polygon points="421,308 455,309 455,135 421,145 421,308"/><polygon points="572,280 533,281 533,307 572,308 572,280"/></g><g fill="#716f6d" stroke="#4a5058" stroke-linejoin="round" stroke-width="0.5"><polygon points="593,280 572,280 572,308 593,308 593,280"/></g><g fill="#8e8d89" stroke="#4a5058" stroke-linejoin="round" stroke-width="0.5"><polygon points="150,308 153,308 153,236 150,237 150,308"/><polygon points="150,307 153,308 153,235 150,236 150,307"/><polygon points="455,135 421,146 421,308 455,309 455,135"/></g><g fill="#716f6d" stroke="#4a5058" stroke-linejoin="round" stroke-width="0.5"><polygon points="572,308 593,308 593,284 572,283 572,308"/><polygon points="108,307 145,307 145,283 108,282 108,307"/><polygon points="247,233 213,231 213,308 247,307 247,233"/></g><g fill="#adaba4" stroke="#4a5058" stroke-linejoin="round" stroke-width="0.5"><polygon points="126,230 211,235 213,235 247,237 223,241 190,239 192,239 170,238 169,238 150,237 153,236 122,234 124,234 115,233 126,230"/></g><g fill="#716f6d" stroke="#4a5058" stroke-linejoin="round" stroke-width="0.5"><polygon points="213,308 247,308 247,237 213,235 213,308"/></g><g fill="#adaba4" stroke="#4a5058" stroke-linejoin="round" stroke-width="0.5"><polygon points="476,109 476,107 501,113 481,110 476,109"/></g><g fill="#716f6d" stroke="#4a5058" stroke-linejoin="round" stroke-width="0.5"><polygon points="455,309 459,309 459,136 455,135 455,309"/><polygon points="455,309 459,309 459,136 455,135 455,309"/></g><g fill="#8e8d89" stroke="#4a5058" stroke-linejoin="round" stroke-width="0.5"><polygon points="211,308 213,308 213,235 211,235 211,308"/><polygon points="213,231 211,231 211,308 213,308 213,231"/></g><g fill="#716f6d" stroke="#4a5058" stroke-linejoin="round" stroke-width="0.5"><polygon points="560,309 562,309 562,135 560,134 560,309"/></g><g fill="#8e8d89" stroke="#4a5058" stroke-linejoin="round" stroke-width="0.5"><polygon points="319,177 319,184 407,158 407,150 319,177"/><polygon points="459,309 476,309 476,131 459,136 459,309"/><polygon points="218,308 224,308 224,284 218,284 218,308"/><polygon points="218,308 224,308 224,289 218,289 218,308"/></g><g fill="#716f6d" stroke="#4a5058" stroke-linejoin="round" stroke-width="0.5"><polygon points="476,107 476,128 501,135 501,113 476,107"/></g><g fill="#8e8d89" stroke="#4a5058" stroke-linejoin="round" stroke-width="0.5"><polygon points="122,308 124,308 124,234 122,234 122,308"/><polygon points="124,230 122,230 122,308 124,308 124,230"/></g><g fill="#adaba4" stroke="#4a5058" stroke-linejoin="round" stroke-width="0.5"><polygon points="243,275 220,281 229,281 253,274 243,275"/><polygon points="206,283 279,284 261,285 239,284 218,284 224,284 220,284 224,283 201,283 206,283"/><polygon points="488,119 506,121 562,135 544,133 488,119"/></g><g fill="#8e8d89" stroke="#4a5058" stroke-linejoin="round" stroke-width="0.5"><polygon points="506,121 488,119 476,128 476,107 456,114 456,137 459,136 459,309 506,310 506,121"/><polygon points="220,309 224,309 224,283 220,284 220,309"/><polygon points="476,309 488,309 488,127 476,131 476,309"/></g><g fill="#716f6d" stroke="#4a5058" stroke-linejoin="round" stroke-width="0.5"><polygon points="562,135 506,121 506,310 509,310 508,122 560,135 560,309 562,309 562,135"/></g><g fill="#adaba4" stroke="#4a5058" stroke-linejoin="round" stroke-width="0.5"><polygon points="563,134 560,135 508,122 511,121 563,134"/></g><g fill="#716f6d" stroke="#4a5058" stroke-linejoin="round" stroke-width="0.8"><polygon points="563,134 511,121 512,310 563,309 563,134"/></g><g fill="#8e8d89" stroke="#4a5058" stroke-linejoin="round" stroke-width="0.8"><polygon points="303,308 428,312 428,156 303,192 303,308"/><polygon points="224,309 224,289 229,289 229,281 220,281 220,309 224,309"/></g><g fill="#716f6d" stroke="#4a5058" stroke-linejoin="round" stroke-width="0.8"><polygon points="126,309 211,308 211,231 126,225 126,309"/><polygon points="126,309 211,308 211,235 126,230 126,309"/></g><g fill="#8e8d89" stroke="#4a5058" stroke-linejoin="round" stroke-width="0.8"><polygon points="115,308 126,309 126,230 115,233 115,308"/></g><g fill="#716f6d" stroke="#4a5058" stroke-linejoin="round" stroke-width="0.8"><polygon points="229,281 229,289 206,289 206,309 279,308 279,284 253,274 229,281"/><polygon points="511,310 563,309 563,134 511,121 511,310"/><polygon points="206,309 279,308 279,284 206,283 206,309"/></g><g fill="#8e8d89" stroke="#4a5058" stroke-linejoin="round" stroke-width="0.8"><polygon points="126,225 115,229 116,308 126,309 126,225"/></g><g fill="#716f6d" stroke="#4a5058" stroke-linejoin="round" stroke-width="0.8"><polygon points="223,293 132,293 132,309 223,308 223,293"/></g><g fill="#8e8d89" stroke="#4a5058" stroke-linejoin="round" stroke-width="0.8"><polygon points="488,309 506,310 506,121 488,127 488,309"/></g><g fill="#6e6d6a" stroke="#4a5058" stroke-linejoin="round" stroke-width="0.8"><polygon points="92,176 22,168 22,308 92,307 92,176"/><polygon points="257,309 283,309 283,282 257,282 257,309"/></g><g fill="#8d8b86" stroke="#4a5058" stroke-linejoin="round" stroke-width="0.8"><polygon points="201,309 206,309 206,283 201,283 201,309"/><polygon points="227,309 231,309 231,282 227,282 227,309"/></g><g fill="#6e6d6a" stroke="#4a5058" stroke-linejoin="round" stroke-width="0.8"><polygon points="132,309 223,308 223,296 132,296 132,309"/></g><g fill="#aca9a3" stroke="#4a5058" stroke-linejoin="round" stroke-width="0.8"><polygon points="263,273 252,274 227,281 231,280 238,280 263,273"/></g><g fill="#8d8b86" stroke="#4a5058" stroke-linejoin="round" stroke-width="0.8"><polygon points="206,289 201,289 201,309 206,309 206,289"/><polygon points="231,280 227,281 227,309 231,309 231,280"/></g><g fill="#6e6d6a" stroke="#4a5058" stroke-linejoin="round" stroke-width="0.8"><polygon points="506,310 509,310 509,121 506,121 506,310"/></g><g fill="#8d8b86" stroke="#4a5058" stroke-linejoin="round" stroke-width="0.8"><polygon points="509,310 511,310 511,121 509,121 509,310"/><polygon points="511,121 508,122 509,310 512,310 511,121"/><polygon points="197,274 176,273 179,281 200,281 197,274"/></g><g fill="#aca9a3" stroke="#4a5058" stroke-linejoin="round" stroke-width="0.8"><polygon points="226,281 248,282 252,281 261,282 257,282 283,282 271,283 252,282 227,282 231,282 220,282 226,281"/></g><g fill="#6e6d6a" stroke="#4a5058" stroke-linejoin="round" stroke-width="0.8"><polygon points="22,308 92,307 92,179 22,171 22,308"/></g><g fill="#8d8b86" stroke="#4a5058" stroke-linejoin="round" stroke-width="0.8"><polygon points="943,265 891,280 891,310 943,311 943,265"/></g><g fill="#6e6d6a" stroke="#4a5058" stroke-linejoin="round" stroke-width="0.8"><polygon points="283,281 263,273 238,280 226,280 226,310 248,309 248,280 257,280 257,309 283,309 283,281"/></g><g fill="#aca9a3" stroke="#4a5058" stroke-linejoin="round" stroke-width="0.8"><polygon points="-29,167 20,173 22,171 92,179 82,185 -32,173 -29,167"/></g><g fill="#6e6d6a" stroke="#4a5058" stroke-linejoin="round" stroke-width="0.8"><polygon points="200,281 179,281 179,309 200,309 200,281"/><polygon points="179,309 200,309 200,282 179,281 179,309"/></g><g fill="#aca9a3" stroke="#4a5058" stroke-linejoin="round" stroke-width="0.8"><polygon points="55,281 119,282 110,283 49,282 55,281"/></g><g fill="#8d8b86" stroke="#4a5058" stroke-linejoin="round" stroke-width="0.8"><polygon points="428,145 303,183 303,308 428,312 428,145"/><polygon points="248,309 252,310 252,281 248,282 248,309"/></g><g fill="#6e6d6a" stroke="#4a5058" stroke-linejoin="round" stroke-width="0.8"><polygon points="119,269 55,267 55,311 119,311 119,269"/></g><g fill="#8d8b86" stroke="#4a5058" stroke-linejoin="round" stroke-width="0.8"><polygon points="20,308 22,308 22,171 20,173 20,308"/></g><g fill="#6e6d6a" stroke="#4a5058" stroke-linejoin="round" stroke-width="0.8"><polygon points="261,280 252,280 252,310 261,309 261,280"/></g><g fill="#8d8b86" stroke="#4a5058" stroke-linejoin="round" stroke-width="0.8"><polygon points="252,280 248,280 248,309 252,310 252,280"/></g><g fill="#6e6d6a" stroke="#4a5058" stroke-linejoin="round" stroke-width="0.8"><polygon points="252,310 261,310 261,282 252,281 252,310"/></g><g fill="#8d8b86" stroke="#4a5058" stroke-linejoin="round" stroke-width="0.8"><polygon points="22,168 20,170 20,308 22,308 22,168"/><polygon points="220,310 226,310 226,281 220,282 220,310"/><polygon points="902,283 926,289 926,287 902,279 879,287 879,289 902,283"/></g><g fill="#9c9b94" stroke="#4a5058" stroke-linejoin="round" stroke-width="0.8"><polygon points="152,281 178,281 175,275 149,275 152,281"/></g><g fill="#6e6d6a" stroke="#4a5058" stroke-linejoin="round" stroke-width="0.8"><polygon points="226,310 248,309 248,282 226,281 226,310"/></g><g fill="#8d8b86" stroke="#4a5058" stroke-linejoin="round" stroke-width="0.8"><polygon points="226,280 220,280 220,309 226,310 226,280"/><polygon points="132,293 129,293 129,309 132,309 132,293"/></g><g fill="#6e6d6a" stroke="#4a5058" stroke-linejoin="round" stroke-width="0.8"><polygon points="407,150 407,158 452,166 452,158 407,150"/><polygon points="20,170 -29,164 -29,308 20,308 20,170"/><polygon points="55,310 119,310 119,282 55,281 55,310"/></g><g fill="#8d8b86" stroke="#4a5058" stroke-linejoin="round" stroke-width="0.8"><polygon points="49,310 55,310 55,281 49,282 49,310"/></g><g fill="#6e6d6a" stroke="#4a5058" stroke-linejoin="round" stroke-width="0.8"><polygon points="144,309 178,309 178,281 144,281 144,309"/></g><g fill="#8d8b86" stroke="#4a5058" stroke-linejoin="round" stroke-width="0.8"><polygon points="141,309 144,309 144,281 141,281 141,309"/></g><g fill="#6e6d6a" stroke="#4a5058" stroke-linejoin="round" stroke-width="0.8"><polygon points="152,281 152,282 144,282 145,309 178,309 178,281 152,281"/></g><g fill="#8d8b86" stroke="#4a5058" stroke-linejoin="round" stroke-width="0.8"><polygon points="144,282 141,282 141,309 145,309 144,282"/></g><g fill="#6e6d6a" stroke="#4a5058" stroke-linejoin="round" stroke-width="0.8"><polygon points="-29,308 20,308 20,173 -29,167 -29,308"/></g><g fill="#8d8b86" stroke="#4a5058" stroke-linejoin="round" stroke-width="0.8"><polygon points="55,267 49,268 49,311 55,311 55,267"/><polygon points="863,310 887,311 887,289 863,289 863,310"/><polygon points="863,310 887,311 887,289 863,289 863,310"/></g><g fill="#aca9a3" stroke="#4a5058" stroke-linejoin="round" stroke-width="0.8"><polygon points="930,289 940,289 945,289 936,289 936,289 890,290 879,289 863,289 887,289 876,288 879,288 906,288 910,288 922,288 914,289 930,289"/></g><g fill="#9c9b94" stroke="#4a5058" stroke-linejoin="round" stroke-width="0.8"><polygon points="218,262 230,267 257,268 252,263 218,262"/></g><g fill="#6e6d6a" stroke="#4a5058" stroke-linejoin="round" stroke-width="0.8"><polygon points="257,310 257,268 230,267 230,310 257,310"/></g><g fill="#aca9a3" stroke="#4a5058" stroke-linejoin="round" stroke-width="0.8"><polygon points="887,289 889,283 892,283 889,282 863,289 887,289"/><polygon points="914,288 926,289 902,283 889,282 892,283 914,288"/></g><g fill="#6e6d6a" stroke="#4a5058" stroke-linejoin="round" stroke-width="0.8"><polygon points="230,310 257,310 257,266 230,265 230,310"/></g><g fill="#aca9a3" stroke="#4a5058" stroke-linejoin="round" stroke-width="0.8"><polygon points="349,253 340,262 403,257 413,246 349,253"/></g><g fill="#8d8b86" stroke="#4a5058" stroke-linejoin="round" stroke-width="0.8"><polygon points="4,159 4,196 5,195 5,157 4,159"/><polygon points="340,310 403,312 403,249 340,255 340,310"/><polygon points="184,310 198,311 198,264 184,266 184,310"/></g><g fill="#aca9a3" stroke="#4a5058" stroke-linejoin="round" stroke-width="0.8"><polygon points="198,264 188,263 193,263 233,264 228,265 232,265 230,265 257,266 249,267 223,266 215,267 200,266 184,266 198,264"/></g><g fill="#6e6d6a" stroke="#4a5058" stroke-linejoin="round" stroke-width="0.8"><polygon points="5,157 5,195 27,196 27,160 5,157"/></g><g fill="#aca9a3" stroke="#4a5058" stroke-linejoin="round" stroke-width="0.8"><polygon points="216,256 200,259 184,268 199,266 216,256"/></g><g fill="#6e6d6a" stroke="#4a5058" stroke-linejoin="round" stroke-width="0.8"><polygon points="321,258 274,256 274,311 321,310 321,258"/></g><g fill="#8d8b86" stroke="#4a5058" stroke-linejoin="round" stroke-width="0.8"><polygon points="256,310 274,311 274,263 256,265 256,310"/></g><g fill="#6e6d6a" stroke="#4a5058" stroke-linejoin="round" stroke-width="0.8"><polygon points="228,310 232,310 232,265 228,265 228,310"/><polygon points="500,160 428,145 428,312 500,310 500,160"/></g><g fill="#aca9a3" stroke="#4a5058" stroke-linejoin="round" stroke-width="0.8"><polygon points="31,192 -45,185 -44,184 -42,179 38,187 31,192"/></g><g fill="#8d8b86" stroke="#4a5058" stroke-linejoin="round" stroke-width="0.8"><polygon points="184,310 198,311 198,278 199,278 199,266 184,268 184,310"/></g><g fill="#6e6d6a" stroke="#4a5058" stroke-linejoin="round" stroke-width="0.8"><polygon points="274,311 321,310 321,265 274,263 274,311"/></g><g fill="#8d8b86" stroke="#4a5058" stroke-linejoin="round" stroke-width="0.8"><polygon points="274,256 256,258 256,310 274,311 274,256"/></g><g fill="#6e6d6a" stroke="#4a5058" stroke-linejoin="round" stroke-width="0.8"><polygon points="232,310 232,267 216,256 199,266 199,278 209,275 228,281 228,310 232,310"/><polygon points="131,268 54,266 54,311 131,310 131,268"/></g><g fill="#8d8b86" stroke="#4a5058" stroke-linejoin="round" stroke-width="0.8"><polygon points="876,311 879,311 879,288 876,288 876,311"/><polygon points="146,310 151,311 151,274 146,275 146,310"/><polygon points="403,257 340,262 340,310 403,312 403,257"/></g><g fill="#6e6d6a" stroke="#4a5058" stroke-linejoin="round" stroke-width="0.8"><polygon points="140,178 121,175 122,311 141,310 140,178"/><polygon points="110,157 -9,141 -9,315 110,313 110,157"/><polygon points="428,312 500,310 500,170 428,156 428,312"/><polygon points="122,311 141,310 141,183 122,181 122,311"/></g><g fill="#9c9b94" stroke="#4a5058" stroke-linejoin="round" stroke-width="0.8"><polygon points="897,268 906,272 910,273 922,274 901,269 897,268"/></g><g fill="#6e6d6a" stroke="#4a5058" stroke-linejoin="round" stroke-width="0.8"><polygon points="54,312 131,311 131,257 54,254 54,312"/><polygon points="38,194 -42,187 -42,314 38,313 38,194"/><polygon points="299,138 299,157 308,158 308,139 299,138"/></g><g fill="#8d8b86" stroke="#4a5058" stroke-linejoin="round" stroke-width="0.8"><polygon points="879,311 906,312 906,288 879,288 879,311"/></g><g fill="#9c9b94" stroke="#4a5058" stroke-linejoin="round" stroke-width="0.8"><polygon points="151,263 157,273 194,273 187,264 151,263"/></g><g fill="#aca9a3" stroke="#4a5058" stroke-linejoin="round" stroke-width="0.8"><polygon points="906,272 897,268 879,273 906,272"/></g><g fill="#8d8b86" stroke="#4a5058" stroke-linejoin="round" stroke-width="0.8"><polygon points="910,273 906,272 879,273 876,274 876,311 910,312 910,273"/><polygon points="283,312 287,312 287,162 283,164 283,312"/></g><g fill="#6e6d6a" stroke="#4a5058" stroke-linejoin="round" stroke-width="0.8"><polygon points="233,311 233,281 214,274 193,280 193,311 233,311"/></g><g fill="#8d8b86" stroke="#4a5058" stroke-linejoin="round" stroke-width="0.8"><polygon points="283,138 283,312 287,312 287,136 283,138"/><polygon points="157,311 157,273 151,263 146,274 146,310 157,311"/></g><g fill="#6e6d6a" stroke="#4a5058" stroke-linejoin="round" stroke-width="0.8"><polygon points="-9,312 110,311 110,161 -9,146 -9,312"/><polygon points="194,273 157,273 157,311 194,311 194,273"/><polygon points="-42,312 38,311 38,187 -42,179 -42,312"/><polygon points="193,311 233,311 233,264 193,263 193,311"/></g><g fill="#8d8b86" stroke="#4a5058" stroke-linejoin="round" stroke-width="0.8"><polygon points="151,311 157,311 157,274 151,274 151,311"/><polygon points="188,311 193,311 193,263 188,263 188,311"/><polygon points="52,312 54,312 54,254 52,255 52,312"/></g><g fill="#6e6d6a" stroke="#4a5058" stroke-linejoin="round" stroke-width="0.8"><polygon points="157,311 194,311 194,274 157,274 157,311"/><polygon points="52,266 27,266 27,311 52,311 52,266"/></g><g fill="#8d8b86" stroke="#4a5058" stroke-linejoin="round" stroke-width="0.8"><polygon points="54,266 52,266 52,311 54,311 54,266"/><polygon points="193,280 188,280 188,311 193,311 193,280"/></g><g fill="#6e6d6a" stroke="#4a5058" stroke-linejoin="round" stroke-width="0.8"><polygon points="27,312 52,312 52,255 27,254 27,312"/></g><g fill="#aca9a3" stroke="#4a5058" stroke-linejoin="round" stroke-width="0.8"><polygon points="289,158 322,145 380,155 335,170 308,165 303,167 283,164 287,162 281,161 289,158"/><polygon points="135,186 32,174 35,172 28,171 33,166 129,177 122,181 141,183 135,186"/><polygon points="54,254 131,257 127,258 -65,250 -64,249 29,253 27,254 52,255 54,254"/></g><g fill="#8d8b86" stroke="#4a5058" stroke-linejoin="round" stroke-width="0.8"><polygon points="281,312 289,312 289,158 281,161 281,312"/></g><g fill="#6e6d6a" stroke="#4a5058" stroke-linejoin="round" stroke-width="0.8"><polygon points="423,312 423,258 413,246 403,257 403,312 423,312"/><polygon points="289,118 289,151 307,154 307,122 289,118"/></g><g fill="#6c6a67" stroke="#4a5058" stroke-linejoin="round" stroke-width="0.8"><polygon points="403,312 423,312 423,250 403,249 403,312"/></g><g fill="#8b8984" stroke="#4a5058" stroke-linejoin="round" stroke-width="0.8"><polygon points="212,311 224,312 224,290 212,290 212,311"/><polygon points="224,271 212,272 212,311 224,312 224,271"/></g><g fill="#6c6a67" stroke="#4a5058" stroke-linejoin="round" stroke-width="0.8"><polygon points="184,281 161,281 161,312 184,311 184,281"/></g><g fill="#8b8984" stroke="#4a5058" stroke-linejoin="round" stroke-width="0.8"><polygon points="161,281 157,281 157,311 161,312 161,281"/></g><g fill="#6c6a67" stroke="#4a5058" stroke-linejoin="round" stroke-width="0.8"><polygon points="246,271 224,271 224,312 246,311 246,271"/><polygon points="224,312 246,311 246,290 224,290 224,312"/></g><g fill="#8b8984" stroke="#4a5058" stroke-linejoin="round" stroke-width="0.8"><polygon points="235,311 293,314 293,147 235,172 235,311"/><polygon points="32,312 35,312 35,172 32,174 32,312"/><polygon points="187,312 199,312 199,281 187,282 187,312"/></g><g fill="#6c6a67" stroke="#4a5058" stroke-linejoin="round" stroke-width="0.8"><polygon points="129,171 33,159 33,312 129,311 129,171"/></g><g fill="#8b8984" stroke="#4a5058" stroke-linejoin="round" stroke-width="0.8"><polygon points="35,166 32,168 32,312 35,312 35,166"/></g><g fill="#aba8a1" stroke="#4a5058" stroke-linejoin="round" stroke-width="0.8"><polygon points="861,178 853,175 948,162 954,166 861,178"/></g><g fill="#8b8984" stroke="#4a5058" stroke-linejoin="round" stroke-width="0.8"><polygon points="322,137 289,151 289,118 281,122 281,312 322,314 322,137"/><polygon points="199,280 187,281 187,312 199,312 199,280"/><polygon points="289,312 322,314 322,145 289,158 289,312"/></g><g fill="#aba8a1" stroke="#4a5058" stroke-linejoin="round" stroke-width="0.8"><polygon points="158,270 168,268 193,269 181,270 158,270"/></g><g fill="#6c6a67" stroke="#4a5058" stroke-linejoin="round" stroke-width="0.8"><polygon points="222,281 199,280 199,312 222,312 222,281"/><polygon points="29,265 -64,262 -64,313 29,312 29,265"/><polygon points="33,312 129,311 129,177 33,166 33,312"/></g><g fill="#8b8984" stroke="#4a5058" stroke-linejoin="round" stroke-width="0.8"><polygon points="853,314 948,316 948,192 853,202 853,314"/></g><g fill="#6c6a67" stroke="#4a5058" stroke-linejoin="round" stroke-width="0.8"><polygon points="199,312 222,312 222,281 199,281 199,312"/></g><g fill="#aba8a1" stroke="#4a5058" stroke-linejoin="round" stroke-width="0.8"><polygon points="861,197 954,187 948,184 1011,177 1022,185 872,201 861,197"/></g><g fill="#8b8984" stroke="#4a5058" stroke-linejoin="round" stroke-width="0.8"><polygon points="78,313 79,313 79,88 78,89 78,313"/><polygon points="158,312 168,313 168,268 158,270 158,312"/></g><g fill="#6c6a67" stroke="#4a5058" stroke-linejoin="round" stroke-width="0.8"><polygon points="380,147 322,137 322,314 380,313 380,147"/></g><g fill="#aba8a1" stroke="#4a5058" stroke-linejoin="round" stroke-width="0.8"><polygon points="948,192 1011,186 1022,193 872,208 861,204 853,202 948,192"/></g><g fill="#8b8984" stroke="#4a5058" stroke-linejoin="round" stroke-width="0.8"><polygon points="293,142 235,167 235,311 293,314 293,142"/><polygon points="79,313 79,97 81,93 81,89 78,95 78,313 79,313"/><polygon points="28,312 33,312 33,166 28,171 28,312"/></g><g fill="#6c6a67" stroke="#4a5058" stroke-linejoin="round" stroke-width="0.8"><polygon points="-64,314 29,313 29,253 -64,249 -64,314"/></g><g fill="#8b8984" stroke="#4a5058" stroke-linejoin="round" stroke-width="0.8"><polygon points="168,280 158,281 158,312 168,313 168,280"/></g><g fill="#6c6a67" stroke="#4a5058" stroke-linejoin="round" stroke-width="0.8"><polygon points="322,314 380,313 380,155 322,145 322,314"/></g><g fill="#8b8984" stroke="#4a5058" stroke-linejoin="round" stroke-width="0.8"><polygon points="33,159 28,165 28,312 33,312 33,159"/><polygon points="72,313 74,313 74,83 72,87 72,313"/></g><g fill="#6c6a67" stroke="#4a5058" stroke-linejoin="round" stroke-width="0.8"><polygon points="193,280 168,280 168,313 193,312 193,280"/><polygon points="168,313 193,312 193,269 168,268 168,313"/></g><g fill="#8b8984" stroke="#4a5058" stroke-linejoin="round" stroke-width="0.8"><polygon points="229,313 243,313 243,271 229,272 229,313"/></g><g fill="#aba8a1" stroke="#4a5058" stroke-linejoin="round" stroke-width="0.8"><polygon points="-64,225 16,230 14,232 -38,229 -48,229 -65,228 -64,225"/><polygon points="229,272 243,271 259,269 286,270 254,273 229,272"/></g><g fill="#6c6a67" stroke="#4a5058" stroke-linejoin="round" stroke-width="0.8"><polygon points="-64,314 16,313 16,230 -64,225 -64,314"/></g><g fill="#8b8984" stroke="#4a5058" stroke-linejoin="round" stroke-width="0.8"><polygon points="1011,177 948,184 948,162 853,175 853,314 1011,317 1011,177"/></g><g fill="#6c6a67" stroke="#4a5058" stroke-linejoin="round" stroke-width="0.8"><polygon points="-64,313 16,312 16,223 -37,220 -37,233 -47,233 -47,249 -64,248 -64,313"/></g><g fill="#8b8984" stroke="#4a5058" stroke-linejoin="round" stroke-width="0.8"><polygon points="74,313 84,315 84,64 74,83 74,313"/></g><g fill="#6c6a67" stroke="#4a5058" stroke-linejoin="round" stroke-width="0.8"><polygon points="320,146 293,142 293,314 320,313 320,146"/></g><g fill="#8b8984" stroke="#4a5058" stroke-linejoin="round" stroke-width="0.8"><polygon points="200,166 200,195 208,192 208,161 200,166"/></g><g fill="#6c6a67" stroke="#4a5058" stroke-linejoin="round" stroke-width="0.8"><polygon points="293,314 320,313 320,151 293,147 293,314"/></g><g fill="#8b8984" stroke="#4a5058" stroke-linejoin="round" stroke-width="0.8"><polygon points="259,314 259,278 243,262 229,280 229,313 259,314"/></g><g fill="#aba8a1" stroke="#4a5058" stroke-linejoin="round" stroke-width="0.8"><polygon points="168,198 197,182 257,189 221,202 168,198"/></g><g fill="#9b9992" stroke="#4a5058" stroke-linejoin="round" stroke-width="0.8"><polygon points="243,262 259,278 286,278 269,263 243,262"/></g><g fill="#6c6a67" stroke="#4a5058" stroke-linejoin="round" stroke-width="0.8"><polygon points="208,161 208,192 239,195 239,166 208,161"/></g><g fill="#aba8a1" stroke="#4a5058" stroke-linejoin="round" stroke-width="0.8"><polygon points="105,25 197,47 179,65 174,64 171,67 156,63 128,97 122,96 122,97 78,89 79,88 72,87 74,83 84,64 93,47 105,25"/></g><g fill="#8b8984" stroke="#4a5058" stroke-linejoin="round" stroke-width="0.8"><polygon points="243,313 259,314 259,269 243,271 243,313"/><polygon points="168,313 197,316 197,182 168,198 168,313"/></g><g fill="#6c6a67" stroke="#4a5058" stroke-linejoin="round" stroke-width="0.8"><polygon points="286,278 259,278 259,314 286,314 286,278"/></g><g fill="#8b8984" stroke="#4a5058" stroke-linejoin="round" stroke-width="0.8"><polygon points="72,313 105,317 105,32 93,53 93,38 84,56 84,70 74,88 74,92 72,95 72,313"/></g><g fill="#6c6a67" stroke="#4a5058" stroke-linejoin="round" stroke-width="0.8"><polygon points="259,314 286,314 286,270 259,269 259,314"/></g><g fill="#aba8a1" stroke="#4a5058" stroke-linejoin="round" stroke-width="0.8"><polygon points="-42,218 40,224 32,228 -47,223 -42,218"/></g><g fill="#8b8984" stroke="#4a5058" stroke-linejoin="round" stroke-width="0.8"><polygon points="197,182 168,197 168,313 197,316 197,182"/></g><g fill="#6c6a67" stroke="#4a5058" stroke-linejoin="round" stroke-width="0.8"><polygon points="40,221 -42,215 -42,314 40,313 40,221"/><polygon points="-42,314 40,313 40,224 -42,218 -42,314"/></g><g fill="#8b8984" stroke="#4a5058" stroke-linejoin="round" stroke-width="0.8"><polygon points="84,315 93,316 93,47 84,64 84,315"/></g><g fill="#6c6a67" stroke="#4a5058" stroke-linejoin="round" stroke-width="0.8"><polygon points="257,188 197,182 197,316 257,314 257,188"/></g><g fill="#6a6864" stroke="#4a5058" stroke-linejoin="round" stroke-width="0.8"><polygon points="197,316 257,315 257,189 197,182 197,316"/><polygon points="839,170 800,157 800,320 839,318 839,170"/></g><g fill="#8a8782" stroke="#4a5058" stroke-linejoin="round" stroke-width="0.8"><polygon points="38,315 46,317 46,240 38,246 38,315"/></g><g fill="#aaa7a0" stroke="#4a5058" stroke-linejoin="round" stroke-width="0.8"><polygon points="893,242 906,245 924,244 921,244 920,243 929,243 942,246 880,249 846,243 925,238 928,239 907,240 911,241 893,242"/></g><g fill="#6a6864" stroke="#4a5058" stroke-linejoin="round" stroke-width="0.8"><polygon points="93,38 93,53 112,57 112,42 93,38"/></g><g fill="#aaa7a0" stroke="#4a5058" stroke-linejoin="round" stroke-width="0.8"><polygon points="911,220 921,223 904,225 893,221 911,220"/></g><g fill="#6a6864" stroke="#4a5058" stroke-linejoin="round" stroke-width="0.8"><polygon points="800,320 839,318 839,179 800,167 800,320"/></g><g fill="#8a8782" stroke="#4a5058" stroke-linejoin="round" stroke-width="0.8"><polygon points="893,221 893,242 911,241 911,220 893,221"/></g><g fill="#6a6864" stroke="#4a5058" stroke-linejoin="round" stroke-width="0.8"><polygon points="28,254 -66,250 -66,316 28,314 28,254"/></g><g fill="#aaa7a0" stroke="#4a5058" stroke-linejoin="round" stroke-width="0.8"><polygon points="-66,264 28,266 24,267 -67,265 -66,264"/></g><g fill="#8a8782" stroke="#4a5058" stroke-linejoin="round" stroke-width="0.8"><polygon points="112,42 112,57 125,37 125,20 112,42"/><polygon points="846,317 925,319 925,241 846,246 846,317"/></g><g fill="#6a6864" stroke="#4a5058" stroke-linejoin="round" stroke-width="0.8"><polygon points="-66,316 28,314 28,266 -66,264 -66,316"/></g><g fill="#8a8782" stroke="#4a5058" stroke-linejoin="round" stroke-width="0.8"><polygon points="93,316 105,317 105,25 93,47 93,316"/><polygon points="925,238 846,243 846,318 925,319 925,238"/></g><g fill="#6a6864" stroke="#4a5058" stroke-linejoin="round" stroke-width="0.8"><polygon points="105,317 197,316 197,47 105,25 105,317"/></g><g fill="#8a8782" stroke="#4a5058" stroke-linejoin="round" stroke-width="0.8"><polygon points="51,318 51,261 46,244 38,268 38,315 51,318"/></g><g fill="#6a6864" stroke="#4a5058" stroke-linejoin="round" stroke-width="0.8"><polygon points="125,20 125,37 105,32 105,317 197,316 197,38 125,20"/></g><g fill="#aaa7a0" stroke="#4a5058" stroke-linejoin="round" stroke-width="0.8"><polygon points="839,170 780,178 639,140 803,102 889,142 800,157 839,170"/></g><g fill="#8a8782" stroke="#4a5058" stroke-linejoin="round" stroke-width="0.8"><polygon points="3,73 3,106 4,100 4,65 3,73"/></g><g fill="#9a9890" stroke="#4a5058" stroke-linejoin="round" stroke-width="0.8"><polygon points="46,244 51,261 95,263 87,246 46,244"/></g><g fill="#6a6864" stroke="#4a5058" stroke-linejoin="round" stroke-width="0.8"><polygon points="4,65 4,100 37,105 37,72 4,65"/></g><g fill="#8a8782" stroke="#4a5058" stroke-linejoin="round" stroke-width="0.8"><polygon points="828,319 918,321 918,238 828,243 828,319"/><polygon points="46,317 51,318 51,235 46,240 46,317"/></g><g fill="#6a6864" stroke="#4a5058" stroke-linejoin="round" stroke-width="0.8"><polygon points="95,263 51,261 51,318 95,318 95,263"/><polygon points="51,318 95,318 95,238 51,235 51,318"/></g><g fill="#aaa7a0" stroke="#4a5058" stroke-linejoin="round" stroke-width="0.8"><polygon points="1009,228 1017,233 845,243 828,239 1009,228"/><polygon points="828,243 918,238 909,236 889,237 886,237 929,234 937,237 1009,233 1017,237 845,246 828,243"/></g><g fill="#8a8782" stroke="#4a5058" stroke-linejoin="round" stroke-width="0.8"><polygon points="1009,228 828,239 828,319 918,321 918,258 937,257 937,321 1009,323 1009,228"/></g><g fill="#6a6864" stroke="#4a5058" stroke-linejoin="round" stroke-width="0.8"><polygon points="44,88 -45,72 -44,320 44,319 44,88"/></g><g fill="#aaa7a0" stroke="#4a5058" stroke-linejoin="round" stroke-width="0.8"><polygon points="929,255 937,257 918,258 909,257 889,258 886,257 929,255"/></g><g fill="#8a8782" stroke="#4a5058" stroke-linejoin="round" stroke-width="0.8"><polygon points="886,321 929,322 929,234 886,237 886,321"/></g><g fill="#6a6864" stroke="#4a5058" stroke-linejoin="round" stroke-width="0.8"><polygon points="-44,320 44,319 44,97 -44,82 -44,320"/></g><g fill="#8a8782" stroke="#4a5058" stroke-linejoin="round" stroke-width="0.8"><polygon points="929,255 886,257 886,321 929,322 929,255"/></g><g fill="#686561" stroke="#4a5058" stroke-linejoin="round" stroke-width="0.8"><polygon points="889,142 803,102 803,329 889,323 889,142"/></g><g fill="#888580" stroke="#4a5058" stroke-linejoin="round" stroke-width="0.8"><polygon points="639,323 803,329 803,116 639,151 639,323"/></g><g fill="#a9a69e" stroke="#4a5058" stroke-linejoin="round" stroke-width="0.8"><polygon points="890,274 910,274 928,275 909,276 890,274"/></g><g fill="#888580" stroke="#4a5058" stroke-linejoin="round" stroke-width="0.8"><polygon points="890,323 910,323 910,294 890,294 890,323"/><polygon points="910,274 890,274 890,323 910,323 910,274"/></g><g fill="#686561" stroke="#4a5058" stroke-linejoin="round" stroke-width="0.8"><polygon points="803,329 889,323 889,153 803,116 803,329"/></g><g fill="#888580" stroke="#4a5058" stroke-linejoin="round" stroke-width="0.8"><polygon points="803,102 639,140 639,323 803,329 803,102"/></g><g fill="#a9a69e" stroke="#4a5058" stroke-linejoin="round" stroke-width="0.8"><polygon points="564,234 713,249 605,255 580,256 557,255 391,244 492,233 531,237 564,234"/></g><g fill="#888580" stroke="#4a5058" stroke-linejoin="round" stroke-width="1.2"><polygon points="890,334 989,338 989,249 890,253 890,334"/></g><g fill="#a9a69e" stroke="#4a5058" stroke-linejoin="round" stroke-width="1.2"><polygon points="1033,257 955,260 890,248 989,243 1273,229 1941,195 1633,236 1735,232 1671,239 1349,250 1370,245 1239,250 1033,257"/></g><g fill="#888580" stroke="#4a5058" stroke-linejoin="round" stroke-width="1.2"><polygon points="391,332 492,339 492,245 391,254 391,332"/></g><g fill="#65635f" stroke="#4a5058" stroke-linejoin="round" stroke-width="1.2"><polygon points="525,341 713,329 713,258 525,242 525,341"/><polygon points="564,234 564,269 525,267 525,342 713,329 713,249 564,234"/></g><g fill="#86837d" stroke="#4a5058" stroke-linejoin="round" stroke-width="1.2"><polygon points="391,332 525,342 525,267 492,269 492,233 391,244 391,332"/><polygon points="531,237 531,271 564,269 564,234 531,237"/></g><g fill="#65635f" stroke="#4a5058" stroke-linejoin="round" stroke-width="1.2"><polygon points="492,233 492,269 531,271 531,237 492,233"/></g><g fill="#86837d" stroke="#4a5058" stroke-linejoin="round" stroke-width="1.2"><polygon points="492,339 525,341 525,242 492,245 492,339"/><polygon points="766,-55 766,-18 777,-22 777,-60 766,-55"/><polygon points="1941,195 1273,229 989,243 890,248 890,334 1942,373 1941,195"/></g><g fill="#a8a49c" stroke="#4a5058" stroke-linejoin="round" stroke-width="1.2"><polygon points="1020,-177 1046,-100 916,-50 811,-16 766,-55 777,-60 736,-96 793,-124 823,-92 1020,-177"/></g><g fill="#86837d" stroke="#4a5058" stroke-linejoin="round" stroke-width="1.2"><polygon points="736,-96 736,-54 793,-79 793,-124 736,-96"/><polygon points="708,350 740,352 740,-99 708,-84 708,350"/></g><g fill="#65635f" stroke="#4a5058" stroke-linejoin="round" stroke-width="1.2"><polygon points="793,-124 793,-79 823,-51 823,-92 793,-124"/></g><g fill="#86837d" stroke="#4a5058" stroke-linejoin="round" stroke-width="1.2"><polygon points="740,-75 708,-61 708,350 740,352 740,-75"/><polygon points="823,-92 823,-51 1020,-127 1020,-177 823,-92"/></g><g fill="#a8a49c" stroke="#4a5058" stroke-linejoin="round" stroke-width="1.2"><polygon points="793,-79 736,-54 777,-22 766,-18 708,-61 740,-75 747,-69 781,-84 765,-100 977,-201 981,-191 993,-196 1020,-127 823,-51 793,-79"/><polygon points="781,-114 747,-97 716,-126 751,-145 781,-114"/></g><g fill="#65635f" stroke="#4a5058" stroke-linejoin="round" stroke-width="1.2"><polygon points="765,356 765,-100 781,-84 781,-114 751,-145 751,358 765,356"/></g><g fill="#86837d" stroke="#4a5058" stroke-linejoin="round" stroke-width="1.2"><polygon points="716,355 751,358 751,-139 716,-120 716,355"/><polygon points="751,358 751,-145 716,-126 716,355 751,358"/></g><g fill="#65635f" stroke="#4a5058" stroke-linejoin="round" stroke-width="1.2"><polygon points="751,358 765,356 765,-125 751,-139 751,358"/></g><g fill="#86837d" stroke="#4a5058" stroke-linejoin="round" stroke-width="1.2"><polygon points="765,356 977,371 977,-232 765,-125 765,356"/><polygon points="977,-201 765,-100 765,356 977,371 977,-201"/><polygon points="-2,347 88,414 88,-678 -2,-115 -2,347"/><polygon points="88,-725 -2,-135 -2,347 88,413 88,-725"/></g><g fill="#65625e" stroke="#4a5058" stroke-linejoin="round" stroke-width="1.2"><polygon points="789,-263 503,-662 503,406 789,361 789,-263"/><polygon points="503,407 789,362 789,-237 503,-618 503,407"/></g><g fill="#86837d" stroke="#4a5058" stroke-linejoin="round" stroke-width="1.2"><polygon points="379,383 503,407 503,-618 379,-421 379,383"/></g><g fill="#65625e" stroke="#4a5058" stroke-linejoin="round" stroke-width="1.2"><polygon points="379,-455 88,-725 88,413 379,383 379,-455"/></g><g fill="#86837d" stroke="#4a5058" stroke-linejoin="round" stroke-width="1.2"><polygon points="503,-662 379,-455 379,383 503,406 503,-662"/></g><g fill="#65625e" stroke="#4a5058" stroke-linejoin="round" stroke-width="1.2"><polygon points="88,414 379,383 379,-421 88,-678 88,414"/></g><g fill="#86837d" stroke="#4a5058" stroke-linejoin="round" stroke-width="1.2"><polygon points="510,423 538,429 538,-1128 510,-1059 510,423"/><polygon points="538,-1176 510,-1105 510,421 538,428 538,-1176"/><polygon points="523,432 605,452 605,-1369 523,-1159 523,432"/><polygon points="605,-1425 523,-1208 523,431 605,450 605,-1425"/></g><g fill="#a8a49c" stroke="#4a5058" stroke-linejoin="round" stroke-width="1.2"><polygon points="1308,-1174 1290,-865 834,-468 510,-1105 538,-1176 523,-1208 605,-1425 590,-1467 1558,-4155 1538,-3887 2334,-5991 2227,-5383 2562,-6220 1706,-2051 1599,-1907 1585,-1823 1390,-1570 1360,-1230 1308,-1174"/></g><g fill="#86837d" stroke="#4a5058" stroke-linejoin="round" stroke-width="1.2"><polygon points="590,455 1559,696 1559,-4011 590,-1410 590,455"/><polygon points="1558,-4155 590,-1467 590,453 1560,691 1558,-4155"/></g></svg>