<svg viewBox="0 0 900 480" xmlns="http://www.w3.org/2000/svg"><rect width="900" height="480" fill="#fff"/><polyline points="439,269 450,271 461,271" fill="none" stroke="#1c4a5a" stroke-width="2.4"/><g fill="#fff" stroke="#232a30" stroke-linejoin="round" stroke-width=".6"><polygon points="495,302 496,302 496,245 495,247 495,302"/><polygon points="496,230 495,233 495,302 496,303 496,230"/><polygon points="555,245 559,242 579,242 570,247 566,247 547,247 495,247 496,245 555,245"/><polygon points="496,302 555,302 555,245 496,245 496,302"/><polygon points="496,303 555,303 555,247 560,247 560,240 550,240 550,230 539,230 539,214 506,214 506,230 496,230 496,303"/><polygon points="572,239 566,242 547,242 550,240 560,240 562,239 572,239"/><polygon points="419,264 416,261 416,303 419,302 419,264"/><polygon points="566,249 572,246 562,246 560,247 555,247 559,245 579,245 570,249 566,249"/><polygon points="416,303 419,302 419,268 416,265 416,303"/><polygon points="343,265 416,265 419,268 351,268 343,265"/><polygon points="310,284 303,284 303,303 310,303 310,284"/><polygon points="497,302 498,302 498,265 497,267 497,302"/><polygon points="555,302 559,303 559,242 555,245 555,302"/><polygon points="243,303 252,303 252,284 243,284 243,303"/><polygon points="252,289 243,289 243,303 252,303 252,289"/><polygon points="562,239 562,246 572,246 572,239 562,239"/><polygon points="241,303 243,303 243,284 241,284 241,303"/><polygon points="294,278 303,284 310,284 302,279 294,278"/><polygon points="276,303 278,303 278,284 276,284 276,303"/><polygon points="303,303 310,303 310,284 303,284 303,303"/><polygon points="535,261 532,262 541,262 540,263 497,263 498,261 535,261"/><polygon points="639,302 681,302 681,256 639,256 639,302"/><polygon points="653,256 653,281 639,281 639,302 681,302 681,256 653,256"/><polygon points="559,245 555,247 555,303 559,303 559,245"/><polygon points="498,261 497,263 497,302 498,303 498,261"/><polygon points="280,303 286,303 286,284 280,284 280,303"/><polygon points="280,303 286,303 286,290 280,290 280,303"/><polygon points="286,303 303,303 303,284 286,284 286,303"/><polygon points="303,303 303,284 294,278 286,284 286,303 303,303"/><polygon points="280,303 280,290 281,290 276,287 272,289 272,303 280,303"/><polygon points="559,303 579,303 579,242 559,242 559,303"/><polygon points="579,245 559,245 559,303 579,303 579,245"/><polygon points="498,302 558,302 558,265 498,265 498,302"/><polygon points="544,278 544,252 535,252 535,261 498,261 498,303 558,303 558,278 544,278"/><polygon points="416,261 343,261 343,303 416,303 416,261"/><polygon points="343,303 416,303 416,265 343,265 343,303"/><polygon points="272,303 280,303 280,284 272,283 272,303"/><polygon points="192,303 196,303 196,284 192,284 192,303"/><polygon points="192,303 196,303 196,289 192,289 192,303"/><polygon points="172,303 180,302 180,290 172,290 172,303"/><polygon points="164,283 172,288 180,289 171,283 164,283"/><polygon points="276,287 265,287 260,289 265,290 264,290 266,290 269,289 272,289 276,287"/><polygon points="340,272 416,272 416,272 343,272 340,272"/><polygon points="269,303 272,303 272,283 269,283 269,303"/><polygon points="272,303 272,289 269,289 269,303 272,303"/><polygon points="269,303 269,289 266,290 266,303 269,303"/><polygon points="172,303 172,288 164,283 155,288 155,303 172,303"/><polygon points="155,303 172,303 172,290 155,290 155,303"/><polygon points="266,303 269,303 269,283 266,283 266,303"/><polygon points="416,278 340,278 340,303 416,303 416,278"/><polygon points="340,303 416,303 416,272 340,272 340,303"/><polygon points="230,264 243,283 269,285 230,264"/><polygon points="264,303 266,303 266,283 264,283 264,303"/><polygon points="266,290 264,290 264,303 266,303 266,290"/><polygon points="717,303 721,303 721,278 717,278 717,303"/><polygon points="247,304 247,289 260,289 265,287 268,289 269,289 269,285 243,283 243,304 247,304"/><polygon points="264,303 264,290 265,290 253,289 253,304 264,303"/><polygon points="501,303 503,303 503,200 501,203 501,303"/><polygon points="725,303 725,283 721,278 717,284 717,303 725,303"/><polygon points="218,264 176,283 243,283 230,264 218,264"/><polygon points="721,303 725,303 725,277 721,278 721,303"/><polygon points="414,255 412,252 412,303 414,303 414,255"/><polygon points="725,283 738,283 733,278 721,278 725,283"/><polygon points="336,254 333,253 412,253 414,255 338,255 336,254"/><polygon points="253,304 264,303 264,283 253,283 253,304"/><polygon points="739,277 744,277 768,277 763,277 777,277 766,278 730,278 717,278 721,278 725,277 738,277 739,277"/><polygon points="744,276 739,276 739,273 730,279 730,284 733,278 738,283 738,303 744,304 744,276"/><polygon points="412,303 414,303 414,255 412,253 412,303"/><polygon points="725,303 738,303 738,283 725,283 725,303"/><polygon points="725,303 738,303 738,277 725,277 725,303"/><polygon points="769,303 792,304 792,267 769,269 769,303"/><polygon points="788,266 769,266 792,264 814,264 788,266"/><polygon points="739,273 739,276 762,276 762,273 739,273"/><polygon points="763,303 777,303 777,277 763,277 763,303"/><polygon points="777,276 763,276 763,303 777,303 777,276"/><polygon points="348,241 348,252 351,254 351,243 348,241"/><polygon points="88,171 85,171 85,301 88,301 88,171"/><polygon points="247,304 253,304 253,283 247,283 247,304"/><polygon points="798,303 810,303 810,266 798,267 798,303"/><polygon points="253,304 253,289 247,289 247,304 253,304"/><polygon points="818,256 798,263 810,262 831,254 818,256"/><polygon points="85,301 88,301 88,173 85,172 85,301"/><polygon points="739,303 744,304 744,277 739,277 739,303"/><polygon points="763,303 768,304 768,278 763,279 763,303"/><polygon points="505,194 503,198 501,201 501,303 505,303 505,194"/><polygon points="810,266 852,266 838,267 818,267 798,267 810,266"/><polygon points="505,196 567,196 563,199 559,199 554,203 501,203 503,200 505,196"/><polygon points="176,304 243,304 243,283 176,283 176,304"/><polygon points="768,279 763,279 763,303 768,304 768,279"/><polygon points="810,262 798,263 798,303 810,303 810,262"/><polygon points="545,194 567,194 563,197 559,197 554,201 501,201 503,198 505,194 545,194"/><polygon points="243,304 247,304 247,283 243,283 243,304"/><polygon points="243,283 176,283 176,304 243,304 243,283"/><polygon points="792,264 769,266 769,303 792,304 792,264"/><polygon points="792,267 814,267 788,269 769,269 792,267"/><polygon points="412,252 348,252 348,241 333,241 333,303 412,303 412,252"/><polygon points="333,303 412,303 412,253 333,253 333,303"/><polygon points="744,304 768,304 768,277 744,277 744,304"/><polygon points="768,276 744,276 744,304 768,304 768,276"/><polygon points="503,303 505,303 505,196 503,200 503,303"/><polygon points="731,304 742,304 742,278 731,279 731,304"/><polygon points="544,189 555,189 552,192 542,192 544,189"/><polygon points="96,171 85,166 85,302 96,301 96,171"/><polygon points="742,279 731,279 731,304 742,304 742,279"/><polygon points="810,303 852,303 852,266 810,266 810,303"/><polygon points="852,303 852,261 831,254 810,262 810,303 852,303"/><polygon points="85,302 96,301 96,172 85,167 85,302"/><polygon points="544,189 544,195 555,195 555,189 544,189"/><polygon points="399,244 399,269 411,269 411,244 399,244"/><polygon points="510,178 510,195 542,195 542,178 510,178"/><polygon points="811,304 819,305 819,280 811,281 811,304"/></g><g fill="#fff" stroke="#232a30" stroke-linejoin="round" stroke-width="1"><polygon points="567,194 545,194 505,194 505,303 567,303 567,194"/><polygon points="505,303 567,303 567,196 505,196 505,303"/><polygon points="85,166 76,166 76,302 85,302 85,166"/><polygon points="76,302 85,302 85,167 76,167 76,302"/><polygon points="819,284 811,284 811,304 819,305 819,284"/><polygon points="742,304 786,304 786,278 742,278 742,304"/><polygon points="786,278 742,279 742,304 786,304 786,278"/><polygon points="146,284 135,283 135,303 146,303 146,284"/><polygon points="792,304 814,304 814,267 792,267 792,304"/><polygon points="814,264 792,264 792,304 814,304 814,264"/><polygon points="76,166 69,164 70,302 76,302 76,166"/><polygon points="316,287 308,282 308,303 316,303 316,287"/><polygon points="135,303 146,303 146,291 135,290 135,303"/><polygon points="274,292 269,292 269,303 274,303 274,292"/><polygon points="550,219 575,219 573,220 549,220 550,219"/><polygon points="70,302 76,302 76,167 70,165 70,302"/><polygon points="513,233 504,233 506,230 636,231 636,230 647,230 640,233 625,233 573,233 549,233 514,233 513,233"/><polygon points="514,234 513,234 515,232 524,232 631,232 625,234 573,234 575,233 550,233 549,234 514,234"/><polygon points="819,305 883,305 883,280 819,280 819,305"/><polygon points="504,303 506,304 506,230 504,233 504,303"/><polygon points="883,284 819,284 819,305 883,305 883,284"/><polygon points="308,303 316,303 316,288 308,288 308,303"/><polygon points="269,303 274,303 274,288 269,288 269,303"/><polygon points="550,219 550,233 575,233 575,219 550,219"/><polygon points="743,276 754,275 800,275 788,276 781,276 765,276 743,276"/><polygon points="794,304 799,305 799,264 794,265 794,304"/><polygon points="198,304 199,304 199,283 198,283 198,304"/><polygon points="506,217 504,219 504,303 506,304 506,217"/><polygon points="743,304 754,304 754,275 743,276 743,304"/><polygon points="765,269 743,276 754,275 776,268 765,269"/><polygon points="313,304 319,304 319,268 313,268 313,304"/><polygon points="313,304 319,304 319,258 313,258 313,304"/><polygon points="135,303 135,283 132,282 127,283 127,303 135,303"/><polygon points="127,303 135,303 135,290 127,290 127,303"/><polygon points="285,303 308,303 308,288 285,288 285,303"/><polygon points="308,282 285,282 285,303 308,303 308,282"/><polygon points="516,218 516,232 523,232 523,218 516,218"/><polygon points="754,275 743,276 743,304 754,304 754,275"/><polygon points="269,292 250,292 250,303 269,303 269,292"/><polygon points="799,264 804,264 884,264 871,265 794,265 799,264"/><polygon points="250,303 269,303 269,288 250,288 250,303"/><polygon points="804,305 804,261 799,260 794,262 794,304 804,305"/><polygon points="199,304 199,284 190,269 187,273 194,282 198,286 198,304 199,304"/><polygon points="631,232 524,232 515,232 515,217 506,217 506,304 636,304 636,270 631,270 631,232"/><polygon points="506,304 636,304 636,231 506,230 506,304"/><polygon points="68,302 77,302 77,165 68,162 68,302"/><polygon points="911,269 898,270 898,307 911,307 911,269"/><polygon points="636,304 636,304 636,230 636,231 636,304"/><polygon points="799,305 804,305 804,264 799,264 799,305"/><polygon points="799,260 804,261 884,261 878,260 799,260"/><polygon points="647,270 636,270 636,304 647,304 647,270"/><polygon points="636,304 647,304 647,230 636,230 636,304"/><polygon points="508,303 509,304 509,221 508,222 508,303"/><polygon points="253,286 233,285 233,305 253,304 253,286"/><polygon points="408,305 414,304 414,269 413,269 413,244 408,237 408,305"/><polygon points="238,282 226,281 233,285 253,286 240,281 232,280 238,282"/><polygon points="804,305 884,305 884,264 804,264 804,305"/><polygon points="754,304 800,304 800,275 754,275 754,304"/><polygon points="793,275 776,268 754,275 754,304 800,304 800,275 793,275"/><polygon points="884,261 804,261 804,305 884,305 884,261"/><polygon points="509,217 519,217 521,215 510,215 510,215 551,215 563,215 559,217 595,218 601,215 607,215 602,218 635,218 635,218 557,218 508,218 509,217"/><polygon points="509,304 510,304 510,219 509,221 509,304"/><polygon points="509,211 509,217 508,218 508,304 510,304 510,215 510,215 510,209 509,211"/><polygon points="77,156 44,143 44,302 56,302 56,167 68,171 68,302 77,302 77,156"/><polygon points="73,171 61,167 62,302 74,302 73,171"/><polygon points="238,282 233,273 226,281 238,282"/><polygon points="826,305 836,305 836,240 826,241 826,305"/><polygon points="760,304 768,304 768,278 760,278 760,304"/><polygon points="835,217 835,228 845,226 845,215 835,217"/><polygon points="836,240 907,240 896,241 885,241 849,241 835,241 826,241 836,240"/><polygon points="640,215 640,274 643,274 643,216 640,215"/><polygon points="885,237 849,238 859,236 896,236 885,237"/><polygon points="639,209 604,209 607,215 642,215 639,209"/><polygon points="62,302 73,302 73,162 62,158 62,302"/><polygon points="550,211 550,215 560,215 560,211 550,211"/><polygon points="305,253 406,253 408,253 414,259 319,259 313,258 319,258 305,253"/><polygon points="836,226 826,228 826,305 836,305 836,226"/><polygon points="233,305 253,304 253,284 233,282 233,305"/><polygon points="768,277 760,277 760,304 768,305 768,277"/><polygon points="408,305 414,304 414,259 408,253 408,305"/><polygon points="510,209 510,215 521,215 521,209 510,209"/><polygon points="510,304 510,304 510,219 510,219 510,304"/><polygon points="510,304 653,304 653,273 642,273 642,215 607,215 601,215 596,212 591,210 584,209 575,210 568,212 563,215 551,215 510,215 510,304"/><polygon points="510,304 653,304 653,219 510,219 510,304"/><polygon points="56,302 62,302 62,158 56,158 56,302"/><polygon points="61,167 56,167 56,302 62,302 61,167"/><polygon points="836,305 907,305 907,240 836,240 836,305"/><polygon points="859,215 845,215 845,226 836,226 836,305 907,305 907,263 896,236 859,236 859,215"/><polygon points="768,304 825,305 825,278 768,278 768,304"/><polygon points="825,305 825,277 784,272 768,277 768,305 825,305"/><polygon points="233,273 183,273 175,281 226,281 233,273"/><polygon points="174,283 177,281 183,273 187,273 190,269 126,269 113,283 174,283"/><polygon points="653,304 659,304 659,286 653,286 653,304"/><polygon points="851,305 859,305 859,247 851,248 851,305"/><polygon points="717,284 709,280 653,280 659,284 717,284"/><polygon points="647,260 513,260 515,258 653,258 647,260"/><polygon points="659,284 653,280 653,304 659,304 659,284"/><polygon points="513,304 515,304 515,258 513,260 513,304"/><polygon points="767,305 775,305 775,276 767,277 767,305"/><polygon points="859,247 922,246 911,248 858,248 851,248 859,247"/><polygon points="859,245 851,246 851,305 859,305 859,245"/><polygon points="44,302 56,302 56,158 44,153 44,302"/><polygon points="922,243 911,245 858,245 867,243 922,243"/><polygon points="775,276 767,276 767,305 775,305 775,276"/><polygon points="520,257 646,257 642,258 519,258 520,257"/><polygon points="515,259 513,260 513,304 515,304 515,259"/><polygon points="717,284 659,284 659,304 717,304 717,284"/><polygon points="659,304 717,304 717,286 659,286 659,304"/><polygon points="111,305 114,305 114,292 111,292 111,305"/><polygon points="111,305 114,305 114,282 111,282 111,305"/><polygon points="113,305 171,305 170,285 174,283 113,283 113,305"/><polygon points="113,305 170,305 170,282 113,282 113,305"/><polygon points="867,243 867,245 859,245 859,305 922,305 922,243 867,243"/><polygon points="859,305 922,305 922,246 859,247 859,305"/><polygon points="520,257 515,259 653,259 646,257 520,257"/><polygon points="44,143 -83,143 -83,289 -74,289 -74,302 44,302 44,143"/><polygon points="-74,302 44,302 44,153 -74,153 -74,302"/><polygon points="775,305 843,305 843,276 775,276 775,305"/><polygon points="226,281 175,281 168,284 187,284 186,285 233,285 226,281"/><polygon points="818,273 801,271 775,276 775,305 843,305 843,273 818,273 818,273"/><polygon points="653,259 515,259 515,304 653,304 653,259"/><polygon points="515,304 653,304 653,258 515,258 515,304"/><polygon points="233,285 186,285 186,305 233,305 233,285"/><polygon points="731,305 733,305 733,276 731,276 731,305"/><polygon points="731,305 733,305 733,277 731,277 731,305"/><polygon points="186,305 233,305 233,282 186,282 186,305"/><polygon points="844,305 861,306 861,270 844,271 844,305"/><polygon points="723,305 724,305 724,275 723,276 723,305"/><polygon points="774,305 784,305 784,273 774,274 774,305"/><polygon points="898,269 898,274 917,273 917,267 898,269"/><polygon points="861,270 943,270 922,271 898,271 866,271 844,271 861,270"/><polygon points="111,292 92,291 92,305 111,305 111,292"/><polygon points="610,304 616,304 616,284 610,284 610,304"/><polygon points="626,277 610,285 616,285 632,277 626,277"/><polygon points="723,305 724,305 724,273 730,272 730,267 723,268 723,305"/><polygon points="784,271 774,272 774,305 784,305 784,271"/><polygon points="511,304 514,304 514,214 511,218 511,304"/><polygon points="735,276 743,275 742,275 743,275 753,270 744,271 731,277 733,277 735,276"/><polygon points="861,264 844,265 844,305 861,306 861,264"/><polygon points="784,273 859,273 846,274 774,274 784,273"/><polygon points="883,264 866,265 844,265 861,264 883,264"/><polygon points="859,271 846,272 774,272 784,271 859,271"/><polygon points="575,202 578,200 578,196 572,200 572,212 575,211 575,202"/><polygon points="883,273 917,273 898,274 866,274 883,273"/><polygon points="511,212 514,209 552,209 551,210 566,210 565,211 575,211 572,212 511,212"/><polygon points="406,305 408,305 408,253 406,253 406,305"/><polygon points="408,305 408,237 406,237 407,305 408,305"/><polygon points="305,305 407,305 406,248 305,248 305,305"/><polygon points="305,305 406,305 406,253 305,253 305,305"/><polygon points="186,285 187,284 185,282 181,275 177,282 175,283 175,305 186,305 186,285"/><polygon points="572,218 511,218 514,214 552,214 551,215 566,215 567,215 601,215 594,218 572,218"/><polygon points="665,304 671,304 671,282 665,283 665,304"/><polygon points="698,305 706,305 706,275 698,275 698,305"/><polygon points="616,285 610,285 610,304 616,304 616,285"/><polygon points="600,196 594,200 572,200 578,196 600,196"/><polygon points="92,305 111,305 111,282 92,281 92,305"/><polygon points="514,209 511,212 511,304 514,304 514,209"/><polygon points="671,282 665,282 665,304 671,304 671,282"/><polygon points="706,272 698,273 698,305 706,305 706,272"/><polygon points="551,304 566,304 566,210 551,210 551,304"/><polygon points="551,304 566,304 566,215 551,215 551,304"/><polygon points="567,200 565,202 565,211 566,210 566,304 567,304 567,200"/><polygon points="784,305 859,305 859,273 784,273 784,305"/><polygon points="859,271 784,271 784,305 859,305 859,271"/><polygon points="175,305 186,305 186,282 175,281 175,305"/><polygon points="732,272 732,275 742,275 743,275 743,267 730,267 730,272 732,272"/><polygon points="566,304 567,304 567,215 566,215 566,304"/><polygon points="156,275 152,282 177,282 181,275 156,275"/><polygon points="739,274 745,274 787,274 780,274 782,274 772,275 769,275 759,276 744,276 731,276 733,276 723,276 724,275 698,275 706,275 732,275 739,274"/><polygon points="861,306 943,306 943,270 861,270 861,306"/><polygon points="883,273 883,264 861,264 861,306 943,306 943,275 917,267 917,273 883,273"/><polygon points="616,304 654,304 654,284 616,284 616,304"/><polygon points="654,304 654,285 632,277 616,285 616,304 654,304"/><polygon points="567,304 601,304 601,215 567,215 567,304"/><polygon points="567,304 601,304 600,196 578,196 578,200 567,200 567,304"/><polygon points="671,304 703,304 703,282 671,282 671,304"/><polygon points="706,272 706,305 732,305 732,272 706,272"/><polygon points="706,305 732,305 732,275 706,275 706,305"/><polygon points="703,282 671,282 671,304 703,304 703,282"/><polygon points="552,209 514,209 514,304 552,304 552,209"/><polygon points="514,304 552,304 552,214 514,214 514,304"/><polygon points="742,269 749,268 749,263 740,265 740,275 742,275 742,269"/><polygon points="152,282 145,283 175,283 177,282 152,282"/><polygon points="92,291 83,291 83,305 92,305 92,291"/><polygon points="83,305 92,305 92,281 83,281 83,305"/><polygon points="732,305 739,306 739,274 732,275 732,305"/><polygon points="175,283 145,283 145,305 175,305 175,283"/><polygon points="145,305 175,305 175,281 145,281 145,305"/><polygon points="648,306 655,306 655,280 648,281 648,306"/><polygon points="796,306 817,306 817,257 796,259 796,306"/><polygon points="745,276 739,276 739,268 732,269 732,272 732,272 732,305 745,306 745,276"/><polygon points="749,263 749,268 739,268 739,276 780,276 780,306 782,306 782,269 749,263"/><polygon points="645,275 556,275 563,273 658,273 645,275"/><polygon points="556,305 563,305 563,252 556,255 556,305"/><polygon points="780,306 782,306 782,274 780,274 780,306"/><polygon points="555,268 516,268 521,266 562,266 555,268"/><polygon points="102,285 90,285 90,305 102,304 102,285"/><polygon points="516,304 521,305 521,236 516,240 516,304"/><polygon points="817,254 796,254 796,306 817,306 817,254"/><polygon points="817,257 954,257 925,259 796,259 817,257"/><polygon points="739,306 745,306 745,274 739,274 739,306"/><polygon points="90,305 102,304 102,287 90,286 90,305"/><polygon points="78,277 90,285 102,285 91,278 78,277"/><polygon points="660,306 660,276 655,272 648,278 648,306 660,306"/><polygon points="681,276 711,270 696,271 668,278 696,272 681,276"/><polygon points="563,252 658,252 645,255 556,255 563,252"/><polygon points="563,273 556,275 556,305 564,305 563,273"/><polygon points="521,236 562,236 555,240 516,240 521,236"/><polygon points="521,266 516,268 516,305 521,305 521,266"/><polygon points="655,306 660,306 660,280 655,280 655,306"/><polygon points="745,306 787,306 787,274 745,274 745,306"/><polygon points="787,275 745,276 745,306 787,306 787,275"/><polygon points="744,280 732,281 696,281 668,281 648,281 655,280 660,280 696,280 705,279 796,279 790,279 798,279 786,280 744,280"/><polygon points="409,151 401,125 401,307 409,305 409,151"/><polygon points="660,276 681,276 696,272 655,272 660,276"/><polygon points="90,305 90,285 78,277 65,285 65,305 90,305"/><polygon points="65,305 90,305 90,286 65,286 65,305"/><polygon points="817,306 954,306 954,257 817,257 817,306"/><polygon points="954,254 817,254 817,306 954,306 954,254"/><polygon points="230,279 202,277 202,308 230,307 230,279"/><polygon points="660,306 696,306 696,280 660,280 660,306"/><polygon points="696,279 742,279 711,270 681,276 660,276 660,306 696,306 696,279"/><polygon points="806,306 812,306 812,275 806,275 806,306"/><polygon points="658,273 563,273 564,305 658,305 658,273"/><polygon points="563,305 658,305 658,252 563,252 563,305"/><polygon points="562,266 521,266 521,305 562,305 562,266"/><polygon points="521,305 562,305 562,236 521,236 521,305"/><polygon points="14,303 14,275 2,266 -13,274 -13,304 14,303"/><polygon points="203,251 193,270 213,273 203,251"/><polygon points="44,239 18,235 18,304 44,304 44,239"/><polygon points="828,272 843,267 832,268 813,274 833,269 828,272"/><polygon points="818,306 818,273 812,269 806,274 806,306 818,306"/><polygon points="696,306 705,306 705,279 696,280 696,306"/><polygon points="413,307 425,305 425,280 413,274 413,307"/><polygon points="796,281 778,279 742,279 742,279 696,279 705,281 796,281"/><polygon points="-13,304 14,303 14,274 -13,272 -13,304"/><polygon points="826,274 839,274 891,274 861,275 848,275 832,275 813,275 806,275 812,275 818,274 826,274"/><polygon points="863,307 886,307 886,272 863,273 863,307"/><polygon points="193,270 202,277 230,279 213,273 193,270"/><polygon points="812,306 818,306 818,274 812,275 812,306"/><polygon points="401,307 409,306 409,146 401,120 401,307"/><polygon points="-16,235 18,235 44,239 13,239 2,238 -16,235"/><polygon points="631,142 631,157 637,153 637,137 631,142"/><polygon points="790,306 798,306 798,279 790,279 790,306"/><polygon points="798,281 790,281 790,306 798,306 798,281"/><polygon points="705,307 705,281 696,279 696,306 705,307"/><polygon points="-14,266 -30,274 -13,274 2,266 -14,266"/><polygon points="818,273 826,273 823,272 828,272 833,269 812,269 818,273"/><polygon points="202,308 230,307 230,274 202,271 202,308"/><polygon points="18,304 44,304 44,239 18,235 18,304"/><polygon points="424,280 416,276 416,273 413,272 413,279 413,279 413,311 425,308 424,280"/><polygon points="700,137 692,142 631,142 637,137 700,137"/><polygon points="130,251 117,270 193,270 203,251 130,251"/><polygon points="818,306 826,306 826,274 818,274 818,306"/><polygon points="818,306 826,306 826,273 818,273 818,306"/><polygon points="886,275 863,269 863,307 886,307 886,275"/><polygon points="967,272 972,271 1004,271 969,273 943,273 927,273 907,273 863,273 886,272 935,272 928,272 954,272 967,272"/><polygon points="886,275 935,275 928,273 925,273 907,269 863,269 886,275"/><polygon points="4,218 4,235 20,237 20,221 4,218"/><polygon points="823,272 826,273 826,306 839,307 839,270 823,271 823,272"/><polygon points="705,306 796,306 796,279 705,279 705,306"/><polygon points="796,281 705,281 705,307 796,307 796,281"/><polygon points="637,137 637,153 700,153 700,137 637,137"/><polygon points="111,308 111,278 100,285 100,308 111,308"/><polygon points="100,308 111,308 111,272 100,272 100,308"/><polygon points="826,306 839,307 839,274 826,274 826,306"/><polygon points="839,270 859,265 843,266 823,271 839,270"/><polygon points="-16,304 18,304 18,235 -16,235 -16,304"/><polygon points="18,235 4,235 4,218 -16,218 -16,304 18,304 18,235"/><polygon points="886,307 935,307 935,272 886,272 886,307"/><polygon points="935,275 886,275 886,307 935,307 935,275"/><polygon points="616,138 616,151 628,151 628,138 616,138"/><polygon points="519,306 529,308 529,138 519,156 519,306"/><polygon points="275,120 278,120 271,112 291,112 297,120 401,120 409,146 302,146 275,120"/><polygon points="597,142 597,154 608,144 608,131 597,142"/><polygon points="117,270 99,277 202,277 193,270 117,270"/><polygon points="839,307 891,307 891,274 839,274 839,307"/><polygon points="839,307 891,307 891,274 876,274 876,270 859,265 839,270 839,307"/><polygon points="623,131 616,138 628,138 623,142 597,142 608,131 623,131"/><polygon points="202,277 99,277 99,308 202,308 202,277"/><polygon points="99,308 202,308 202,271 99,271 99,308"/><polygon points="529,139 519,157 519,307 529,308 529,139"/><polygon points="847,307 868,307 868,271 847,272 847,307"/><polygon points="275,307 278,307 278,125 275,125 275,307"/><polygon points="275,307 278,307 278,120 275,120 275,307"/><polygon points="297,307 401,307 401,120 297,120 297,307"/><polygon points="401,125 297,125 297,307 401,307 401,125"/><polygon points="866,272 847,272 868,271 886,271 882,271 928,271 911,272 868,272 866,272"/><polygon points="928,267 911,268 868,268 866,268 847,268 868,267 886,267 882,267 928,267"/><polygon points="868,267 847,268 847,307 868,307 868,267"/><polygon points="297,307 297,125 298,127 298,109 291,100 291,307 297,307"/><polygon points="608,131 608,144 623,144 623,131 608,131"/><polygon points="736,308 755,308 755,265 736,267 736,308"/><polygon points="582,136 597,136 607,125 747,125 692,157 631,157 594,157 519,156 529,138 580,138 582,136"/><polygon points="882,307 928,307 928,271 882,271 882,307"/><polygon points="928,267 882,267 882,307 928,307 928,267"/><polygon points="399,306 399,215 397,207 396,211 396,307 399,306"/><polygon points="291,170 396,169 399,174 320,175 298,175 291,170"/><polygon points="291,308 297,307 297,120 291,112 291,308"/><polygon points="529,139 580,139 577,142 596,142 598,140 610,140 649,140 667,126 703,126 695,132 711,132 705,136 730,136 700,153 637,153 631,157 594,157 519,157 529,139"/><polygon points="755,259 736,261 736,308 755,308 755,259"/><polygon points="396,307 399,306 399,174 396,169 396,307"/><polygon points="868,307 886,307 886,271 868,271 868,307"/><polygon points="886,267 868,267 868,307 886,307 886,267"/><polygon points="317,207 314,211 396,211 397,207 317,207"/><polygon points="271,308 291,308 291,112 271,112 271,308"/><polygon points="291,100 271,100 271,307 291,307 291,100"/><polygon points="314,211 314,238 291,238 291,307 396,307 396,211 314,211"/><polygon points="291,307 396,307 396,169 291,170 291,307"/><polygon points="582,119 577,125 577,142 580,139 580,308 582,308 582,119"/><polygon points="529,308 580,308 580,139 529,139 529,308"/><polygon points="529,308 580,308 580,138 529,138 529,308"/><polygon points="580,308 582,308 582,136 580,138 580,308"/><polygon points="755,308 764,308 764,265 755,265 755,308"/><polygon points="764,259 755,259 755,308 764,308 764,259"/><polygon points="399,311 399,279 413,279 413,272 399,272 399,311 399,311"/><polygon points="597,119 582,119 582,308 597,308 597,119"/><polygon points="582,308 597,308 597,136 582,136 582,308"/><polygon points="814,261 736,261 755,259 764,259 784,256 799,256 804,256 868,256 814,261"/><polygon points="854,309 883,309 883,264 854,266 854,309"/><polygon points="667,107 649,123 598,123 596,125 577,125 582,119 597,119 607,107 667,107"/><polygon points="804,263 868,263 814,267 736,267 755,265 764,265 784,263 799,263 804,263"/><polygon points="705,116 711,112 737,112 730,117 705,116"/><polygon points="705,136 711,132 711,112 705,116 705,136"/><polygon points="764,308 784,309 784,263 764,265 764,308"/><polygon points="894,308 943,310 943,251 894,256 894,308"/><polygon points="922,249 894,249 943,244 975,244 922,249"/><polygon points="597,308 607,308 607,125 597,136 597,308"/><polygon points="854,309 905,310 905,272 883,258 883,257 854,257 854,309"/><polygon points="784,256 764,259 764,308 784,309 784,256"/><polygon points="531,307 540,308 540,245 531,249 531,307"/><polygon points="607,244 594,249 581,249 580,249 531,249 540,244 607,244"/><polygon points="540,245 607,245 594,249 581,249 580,249 531,249 540,245"/><polygon points="607,107 597,119 597,308 607,308 607,107"/><polygon points="883,264 905,262 946,262 890,266 854,266 883,264"/><polygon points="943,244 894,249 894,308 943,310 943,244"/><polygon points="695,81 695,132 703,126 703,74 695,81"/><polygon points="123,17 123,39 148,56 148,35 123,17"/><polygon points="540,244 531,249 531,307 540,308 540,244"/><polygon points="747,74 737,81 695,81 703,74 747,74"/><polygon points="784,309 799,309 799,263 784,263 784,309"/><polygon points="799,256 784,256 784,309 799,309 799,256"/><polygon points="355,308 364,308 364,58 355,41 355,308"/><polygon points="799,309 804,309 804,263 799,263 799,309"/><polygon points="804,256 799,256 799,309 804,309 804,256"/><polygon points="747,308 747,74 703,74 703,126 667,126 667,107 607,107 607,308 747,308"/><polygon points="607,308 747,308 747,125 607,125 607,308"/><polygon points="883,309 905,310 905,262 883,264 883,309"/><polygon points="804,309 868,309 868,263 804,263 804,309"/><polygon points="868,256 804,256 804,309 868,309 868,256"/><polygon points="83,18 83,40 123,39 123,17 83,18"/><polygon points="946,272 922,258 883,258 905,272 946,272"/><polygon points="607,244 540,244 540,308 607,308 607,244"/><polygon points="540,308 607,308 607,245 540,245 540,308"/><polygon points="353,9 297,10 297,34 353,33 353,9"/><polygon points="353,9 353,33 317,-38 317,4 355,69 355,308 364,307 364,32 353,9"/><polygon points="297,34 297,10 297,10 297,-18 259,-82 259,-19 297,34"/><polygon points="866,312 889,313 889,271 866,272 866,312"/><polygon points="773,311 802,312 802,260 773,263 773,311"/><polygon points="831,311 870,313 870,267 831,269 831,311"/><polygon points="634,132 545,131 553,118 649,118 634,132"/><polygon points="545,309 553,309 553,118 545,131 545,309"/><polygon points="553,113 553,132 560,122 560,101 553,113"/><polygon points="902,260 860,263 831,263 870,260 902,260"/><polygon points="870,260 831,263 831,312 870,313 870,260"/><polygon points="648,122 636,132 634,134 545,134 553,121 649,121 648,122"/><polygon points="904,313 904,271 889,261 866,273 866,312 904,313"/><polygon points="628,102 617,113 553,113 560,101 628,102"/><polygon points="553,121 545,134 545,309 553,309 553,121"/><polygon points="801,311 867,314 867,263 801,269 801,311"/><polygon points="747,183 3161,-149 12863,-291 11689,-235 10947,-203 9348,-129 7335,-32 2318,16 789,195 464,292 460,292 747,183"/><polygon points="889,313 902,313 902,270 889,271 889,313"/><polygon points="889,261 904,271 950,271 934,261 889,261"/><polygon points="802,260 834,257 866,257 800,263 773,263 802,260"/><polygon points="560,101 560,122 628,122 628,102 560,101"/><polygon points="902,260 870,260 870,313 902,313 902,260"/><polygon points="870,313 902,313 902,267 870,267 870,313"/><polygon points="649,121 553,121 553,309 649,309 649,121"/><polygon points="553,309 649,309 649,118 553,118 553,309"/><polygon points="834,313 834,258 802,245 773,264 773,311 834,313"/><polygon points="902,258 830,264 801,264 867,258 902,258"/><polygon points="867,263 902,263 830,269 801,269 867,263"/><polygon points="867,258 801,264 801,311 867,314 867,258"/><polygon points="659,311 697,314 697,191 659,206 659,311"/><polygon points="680,195 659,207 697,192 709,183 680,195"/><polygon points="802,245 834,258 866,258 831,245 802,245"/><polygon points="802,312 834,313 834,257 802,260 802,312"/><polygon points="870,313 904,314 904,268 870,270 870,313"/><polygon points="697,192 659,207 659,311 697,314 697,192"/><polygon points="816,183 775,196 680,195 709,183 816,183"/><polygon points="936,265 900,267 870,267 904,265 936,265"/><polygon points="904,265 870,267 870,313 904,314 904,265"/><polygon points="54,-75 54,-13 259,-19 259,-82 54,-75"/><polygon points="383,69 306,-104 306,316 383,308 383,69"/><polygon points="290,-150 288,-154 306,-155 383,40 355,41 364,58 257,58 148,59 109,59 33,60 18,52 16,47 -37,-94 -7,-96 -46,-126 129,-135 123,-143 290,-150"/><polygon points="866,258 834,258 834,313 866,313 866,258"/><polygon points="834,313 866,313 866,257 834,257 834,313"/><polygon points="902,258 867,258 867,314 902,314 902,258"/><polygon points="867,314 902,314 902,263 867,263 867,314"/><polygon points="709,183 697,192 836,192 816,183 709,183"/><polygon points="836,192 697,192 697,314 836,314 836,192"/><polygon points="697,314 836,314 836,191 697,191 697,314"/><polygon points="847,314 860,314 860,261 847,262 847,314"/><polygon points="309,-38 309,4 317,4 317,-38 309,-38"/><polygon points="871,314 871,259 860,251 847,261 847,314 871,314"/><polygon points="871,260 905,260 907,259 973,259 942,262 880,262 847,262 860,261 871,260"/><polygon points="309,-38 305,-44 305,-1 309,4 309,-38"/><polygon points="860,314 871,315 871,260 860,261 860,314"/><polygon points="907,315 907,252 899,247 880,255 880,261 893,250 905,259 905,315 907,315"/><polygon points="744,314 759,315 759,234 744,238 744,314"/><polygon points="871,259 905,259 893,250 860,251 871,259"/><polygon points="414,279 168,219 168,353 414,311 414,279"/><polygon points="964,247 899,247 907,252 973,252 964,247"/><polygon points="871,314 905,315 905,259 871,259 871,314"/><polygon points="871,315 905,315 905,260 871,260 871,315"/><polygon points="590,77 590,80 610,52 610,49 590,77"/><polygon points="582,83 575,89 593,63 601,56 582,83"/><polygon points="570,97 570,104 588,80 588,71 570,97"/><polygon points="566,314 583,316 583,62 566,89 566,314"/><polygon points="306,317 383,308 383,40 306,-155 306,317"/><polygon points="881,314 899,315 899,246 881,248 881,314"/><polygon points="776,316 776,263 759,252 744,266 744,314 776,316"/><polygon points="836,230 889,230 839,238 792,238 744,238 759,234 776,231 829,231 836,230"/><polygon points="889,223 839,231 792,231 836,223 889,223"/><polygon points="759,315 776,316 776,231 759,234 759,315"/><polygon points="781,51 742,79 590,77 610,49 781,51"/><polygon points="601,56 610,52 590,80 582,83 601,56"/><polygon points="583,80 588,80 570,104 566,104 583,80"/><polygon points="583,80 566,104 566,314 583,316 583,80"/><polygon points="836,223 792,231 792,266 809,253 829,263 829,316 836,316 836,223"/><polygon points="776,263 829,263 809,253 759,252 776,263"/><polygon points="916,315 916,256 899,247 881,259 881,314 916,315"/><polygon points="899,315 916,316 916,244 899,246 899,315"/><polygon points="776,316 829,316 829,263 776,263 776,316"/><polygon points="776,316 829,315 829,231 776,231 776,316"/><polygon points="916,256 970,255 951,247 899,247 916,256"/><polygon points="829,315 836,316 836,230 829,231 829,315"/><polygon points="889,223 836,223 836,316 889,316 889,223"/><polygon points="836,316 889,316 889,230 836,230 836,316"/><polygon points="583,316 781,316 781,63 583,62 583,316"/><polygon points="583,316 781,316 781,51 610,49 610,52 601,56 593,63 588,71 588,80 583,80 583,316"/><polygon points="830,314 834,314 834,256 830,257 830,314"/><polygon points="307,-121 307,-63 337,-2 337,-50 307,-121"/><polygon points="830,314 834,315 834,249 862,239 863,239 863,238 830,243 830,314"/><polygon points="785,314 810,316 810,253 785,256 785,314"/><polygon points="878,315 922,317 922,249 878,253 878,315"/><polygon points="922,213 970,213 925,221 918,221 915,221 878,221 922,213"/><polygon points="778,240 732,240 774,232 827,232 778,240"/><polygon points="863,238 907,238 870,242 830,243 863,238"/><polygon points="653,119 653,128 684,104 684,93 653,119"/><polygon points="587,315 608,317 608,115 587,138 587,315"/><polygon points="810,253 832,250 935,250 870,257 830,257 834,256 785,256 810,253"/><polygon points="774,93 732,119 653,119 684,93 774,93"/><polygon points="936,247 941,247 1043,247 967,253 915,253 878,253 922,249 936,247"/><polygon points="608,104 684,104 653,128 587,128 608,104"/><polygon points="608,104 587,128 587,315 608,317 608,104"/><polygon points="865,239 865,247 907,247 907,238 863,238 863,239 865,239"/><polygon points="832,317 832,242 810,239 785,249 785,315 832,317"/><polygon points="307,-121 258,-119 258,-113 266,-113 266,-62 307,-63 307,-121"/><polygon points="936,230 922,232 922,213 878,221 878,315 941,317 941,249 936,250 936,230"/></g><g fill="#fff" stroke="#232a30" stroke-linejoin="round" stroke-width="1.4"><polygon points="810,316 832,317 832,250 810,253 810,316"/><polygon points="832,242 890,242 865,239 863,239 862,239 810,239 832,242"/><polygon points="935,244 907,247 865,247 890,244 935,244"/><polygon points="235,-186 235,-98 239,-92 239,-148 258,-113 258,-119 262,-111 262,-133 235,-186"/><polygon points="247,-93 266,-62 266,-113 247,-148 247,-93"/><polygon points="608,317 827,317 827,232 774,232 774,93 684,93 684,104 608,104 608,317"/><polygon points="608,317 827,317 827,116 608,115 608,317"/><polygon points="-46,315 129,316 129,-135 -46,-126 -46,315"/><polygon points="-45,315 129,315 129,-141 -46,-132 -45,315"/><polygon points="832,317 935,317 935,250 832,250 832,317"/><polygon points="832,317 935,317 935,244 890,244 890,242 832,242 832,317"/><polygon points="168,339 414,307 414,274 168,197 168,339"/><polygon points="239,-148 239,-92 247,-93 247,-148 239,-148"/><polygon points="123,316 290,316 290,-150 123,-143 123,316"/><polygon points="123,315 291,316 290,-100 235,-98 235,-186 123,-181 123,315"/><polygon points="288,317 306,317 306,-155 288,-154 288,317"/><polygon points="306,-104 288,-104 289,316 306,316 306,-104"/><polygon points="861,317 944,321 944,216 861,229 861,317"/><polygon points="783,317 830,320 830,223 783,233 783,317"/><polygon points="625,318 659,321 659,113 625,143 625,318"/><polygon points="649,117 625,144 659,115 673,95 649,117"/><polygon points="830,230 783,239 783,317 830,320 830,230"/><polygon points="830,223 928,223 869,233 783,233 830,223"/><polygon points="928,230 869,238 783,239 830,230 928,230"/><polygon points="944,200 861,216 861,317 944,321 944,200"/><polygon points="944,216 1067,215 963,229 861,229 944,216"/><polygon points="1067,200 963,216 861,216 944,200 1067,200"/><polygon points="781,143 625,143 659,113 758,113 752,117 837,117 781,143"/><polygon points="87,234 14,222 14,318 87,315 87,234"/><polygon points="807,98 773,117 649,117 673,95 729,95 725,98 807,98"/><polygon points="659,115 625,144 625,317 659,321 659,115"/><polygon points="238,140 238,156 260,169 260,154 238,140"/><polygon points="-150,215 14,215 87,228 -52,229 -150,215"/><polygon points="830,320 928,320 928,223 830,223 830,320"/><polygon points="928,230 830,230 830,320 928,320 928,230"/><polygon points="14,318 87,315 87,228 14,215 14,318"/><polygon points="725,98 752,119 837,119 807,98 725,98"/><polygon points="304,175 221,121 221,323 304,315 304,175"/><polygon points="185,140 185,157 238,156 238,140 185,140"/><polygon points="837,119 752,119 752,321 837,321 837,119"/><polygon points="752,321 837,321 837,117 752,117 752,321"/><polygon points="673,95 659,115 758,115 729,95 673,95"/><polygon points="758,115 659,115 659,321 758,321 758,115"/><polygon points="659,321 758,321 758,113 659,113 659,321"/><polygon points="844,320 898,323 898,208 844,219 844,320"/><polygon points="898,208 1034,208 976,217 936,217 923,219 844,219 898,208"/><polygon points="1034,203 976,213 936,213 923,215 844,215 898,203 1034,203"/><polygon points="-150,318 14,318 14,215 -150,215 -150,318"/><polygon points="14,222 -150,222 -150,318 14,318 14,222"/><polygon points="221,323 304,315 304,193 221,147 221,323"/><polygon points="898,203 844,215 844,320 898,323 898,203"/><polygon points="771,321 860,327 860,195 771,218 771,321"/><polygon points="898,323 1034,323 1034,208 898,208 898,323"/><polygon points="1034,203 898,203 898,323 1034,323 1034,203"/><polygon points="656,322 707,328 707,179 656,203 656,322"/><polygon points="860,195 1009,195 937,208 892,208 846,218 771,218 860,195"/><polygon points="1009,195 937,209 892,209 846,218 771,218 860,196 1009,195"/><polygon points="860,196 771,218 771,321 860,327 860,196"/><polygon points="707,192 656,213 656,322 707,328 707,192"/><polygon points="857,141 775,173 656,213 707,192 857,141"/><polygon points="173,101 173,122 196,136 196,117 173,101"/><polygon points="-9,323 221,323 221,147 -9,150 -9,323"/><polygon points="107,102 107,123 -10,125 -9,323 221,323 221,121 179,122 173,122 173,101 107,102"/><polygon points="707,328 857,328 857,179 707,179 707,328"/><polygon points="857,141 707,192 707,328 857,328 857,141"/><polygon points="860,327 1009,327 1009,195 860,195 860,327"/><polygon points="1009,195 860,196 860,327 1009,327 1009,195"/><polygon points="729,333 761,337 761,-412 729,-337 729,333"/><polygon points="217,-209 126,-391 126,333 217,324 217,-209"/><polygon points="761,-350 729,-281 729,333 761,337 761,-350"/><polygon points="126,334 217,324 217,-198 126,-375 126,334"/><polygon points="825,-398 825,-299 970,-537 970,-675 825,-398"/><polygon points="753,337 793,342 793,-508 753,-412 753,337"/><polygon points="6,-622 6,-386 69,-294 69,-498 6,-622"/><polygon points="793,-437 753,-350 753,337 793,342 793,-437"/><polygon points="-200,-364 -150,-366 -593,-839 -578,-871 93,-393 77,-374 126,-375 217,-198 52,-193 48,-198 -30,-195 -200,-364"/><polygon points="126,-391 6,-386 6,-622 -77,-618 -77,-383 -200,-379 -200,333 -150,333 -150,-368 77,-304 77,333 126,333 126,-391"/><polygon points="793,342 802,342 802,-508 793,-508 793,342"/><polygon points="802,-438 793,-437 793,342 802,342 802,-438"/><polygon points="77,334 126,334 126,-375 77,-374 77,334"/><polygon points="802,342 840,347 840,-598 802,-508 802,342"/><polygon points="840,-520 802,-438 802,342 840,347 840,-520"/><polygon points="814,-282 729,-281 761,-350 753,-350 793,-437 802,-438 840,-520 939,-605 2089,-1597 2252,-1604 2345,-1703 2789,-1723 2567,-1530 2801,-1540 1610,-605 1221,-597 1142,-545 945,-302 1088,-304 1069,-286 814,-282"/><polygon points="840,347 939,352 939,-691 840,-598 840,347"/><polygon points="93,-303 77,-304 -150,-368 -593,-608 -578,-611 93,-303"/><polygon points="1474,-1125 1953,-1141 1568,-770 1232,-761 1065,-642 909,-400 825,-398 970,-675 1474,-1125"/><polygon points="93,-303 -578,-611 -578,360 93,334 93,-303"/><polygon points="-578,360 93,335 93,-393 -578,-871 -578,360"/><polygon points="168,219 -1726,58 -1726,469 168,353 168,219"/><polygon points="2089,-1597 939,-605 840,-520 840,347 2090,413 2089,-1597"/><polygon points="747,350 3161,502 3161,-204 747,169 747,350"/><polygon points="-1726,425 168,339 168,197 -1726,-10 -1726,425"/><polygon points="3161,-149 747,183 747,349 3162,498 3161,-149"/></g></svg>