<svg viewBox="0 0 900 480" xmlns="http://www.w3.org/2000/svg"><rect width="900" height="480" fill="#dce9f2"/><rect y="298" width="900" height="480" fill="#e8e4dd"/><polygon points="-70,298 -70,282 -52,282 -34,279 -17,280 0,279 16,277 32,276 48,279 63,278 78,278 92,279 107,278 121,276 134,276 148,276 161,278 174,279 187,277 200,277 212,277 225,278 237,279 249,281 261,282 272,281 284,282 296,282 307,281 318,277 330,274 341,275 352,277 363,273 374,269 385,266 396,263 407,262 418,260 428,258 439,258 450,255 461,258 472,259 482,260 493,260 504,260 515,263 526,259 537,265 548,265 559,266 570,265 582,267 593,260 604,260 616,258 628,259 639,259 651,261 663,256 675,258 688,261 700,266 713,268 726,267 739,266 752,264 766,264 779,264 793,265 808,264 822,266 837,266 852,266 868,266 884,267 900,268 917,266 934,268 952,269 970,271 970,298" fill="#6c8494"/><polyline points="-70,282 -52,282 -34,279 -17,280 0,279 16,277 32,276 48,279 63,278 78,278 92,279 107,278 121,276 134,276 148,276 161,278 174,279 187,277 200,277 212,277 225,278 237,279 249,281 261,282 272,281 284,282 296,282 307,281 318,277 330,274 341,275 352,277 363,273 374,269 385,266 396,263 407,262 418,260 428,258 439,258 450,255 461,258 472,259 482,260 493,260 504,260 515,263 526,259 537,265 548,265 559,266 570,265 582,267 593,260 604,260 616,258 628,259 639,259 651,261 663,256 675,258 688,261 700,266 713,268 726,267 739,266 752,264 766,264 779,264 793,265 808,264 822,266 837,266 852,266 868,266 884,267 900,268 917,266 934,268 952,269 970,271" fill="none" stroke="#3d5a6b" stroke-width="1.6"/><g fill="#807f7a" stroke="#4a5058" stroke-linejoin="round" stroke-width="0.5"><polygon points="148,269 146,268 146,308 148,307 148,269"/><polygon points="146,308 148,307 148,269 146,268 146,308"/></g><g fill="#adaba4" stroke="#4a5058" stroke-linejoin="round" stroke-width="0.5"><polygon points="140,269 103,269 100,268 146,268 148,269 140,269"/></g><g fill="#716f6d" stroke="#4a5058" stroke-linejoin="round" stroke-width="0.8"><polygon points="100,308 146,308 146,268 138,268 138,265 100,264 100,308"/><polygon points="100,308 146,308 146,268 100,268 100,308"/></g><g fill="#807f7a" stroke="#4a5058" stroke-linejoin="round" stroke-width="0.8"><polygon points="144,280 144,280 143,271 142,271 142,307 144,307 144,280"/><polygon points="142,307 144,307 144,273 142,272 142,307"/><polygon points="39,283 32,282 32,308 39,307 39,283"/></g><g fill="#7e7c78" stroke="#4a5058" stroke-linejoin="round" stroke-width="0.8"><polygon points="32,308 39,307 39,281 32,280 32,308"/><polygon points="85,308 93,307 93,279 85,277 85,308"/><polygon points="85,308 93,307 93,282 85,281 85,308"/></g><g fill="#9c9b94" stroke="#4a5058" stroke-linejoin="round" stroke-width="0.8"><polygon points="13,274 -6,282 32,282 22,275 13,274"/></g><g fill="#7e7c78" stroke="#4a5058" stroke-linejoin="round" stroke-width="0.8"><polygon points="144,280 142,280 142,308 144,307 144,280"/></g><g fill="#6e6d6a" stroke="#4a5058" stroke-linejoin="round" stroke-width="0.8"><polygon points="99,308 142,307 142,271 130,270 130,267 107,266 107,287 99,287 99,308"/><polygon points="99,308 142,307 142,272 99,271 99,308"/></g><g fill="#7e7c78" stroke="#4a5058" stroke-linejoin="round" stroke-width="0.8"><polygon points="142,308 144,307 144,276 142,275 142,308"/></g><g fill="#aca9a3" stroke="#4a5058" stroke-linejoin="round" stroke-width="0.8"><polygon points="85,281 93,282 80,275 77,275 74,273 67,272 73,275 74,275 77,277 85,281"/></g><g fill="#6e6d6a" stroke="#4a5058" stroke-linejoin="round" stroke-width="0.8"><polygon points="32,282 -6,282 -6,308 32,308 32,282"/><polygon points="-6,308 32,308 32,280 -6,280 -6,308"/><polygon points="142,308 142,280 122,273 101,279 101,308 142,308"/></g><g fill="#7e7c78" stroke="#4a5058" stroke-linejoin="round" stroke-width="0.8"><polygon points="26,308 31,308 31,291 26,291 26,308"/></g><g fill="#6e6d6a" stroke="#4a5058" stroke-linejoin="round" stroke-width="0.8"><polygon points="101,308 142,308 142,275 101,275 101,308"/></g><g fill="#7e7c78" stroke="#4a5058" stroke-linejoin="round" stroke-width="0.8"><polygon points="141,245 138,243 138,308 141,308 141,245"/><polygon points="97,277 92,276 92,308 97,308 97,277"/></g><g fill="#6e6d6a" stroke="#4a5058" stroke-linejoin="round" stroke-width="0.8"><polygon points="13,308 26,308 26,291 13,291 13,308"/></g><g fill="#7e7c78" stroke="#4a5058" stroke-linejoin="round" stroke-width="0.8"><polygon points="6,309 14,308 14,283 6,283 6,309"/><polygon points="138,309 141,308 141,246 138,244 138,309"/><polygon points="92,308 97,308 97,277 92,277 92,308"/></g><g fill="#9c9b94" stroke="#4a5058" stroke-linejoin="round" stroke-width="0.8"><polygon points="65,280 66,276 73,275 67,272 45,280 65,280"/></g><g fill="#6e6d6a" stroke="#4a5058" stroke-linejoin="round" stroke-width="0.8"><polygon points="138,308 138,243 131,243 131,309 138,308"/><polygon points="131,309 138,309 138,244 131,243 131,309"/></g><g fill="#7e7c78" stroke="#4a5058" stroke-linejoin="round" stroke-width="0.8"><polygon points="11,309 15,309 15,283 11,282 11,309"/></g><g fill="#9c9b94" stroke="#4a5058" stroke-linejoin="round" stroke-width="0.8"><polygon points="92,276 81,272 63,276 92,276"/></g><g fill="#6e6d6a" stroke="#4a5058" stroke-linejoin="round" stroke-width="0.8"><polygon points="45,308 65,308 65,280 45,280 45,308"/><polygon points="45,308 65,308 65,277 45,276 45,308"/><polygon points="92,276 63,276 63,308 92,308 92,276"/></g><g fill="#aca9a3" stroke="#4a5058" stroke-linejoin="round" stroke-width="0.8"><polygon points="94,244 82,238 126,239 131,243 138,244 141,246 94,244"/></g><g fill="#6e6d6a" stroke="#4a5058" stroke-linejoin="round" stroke-width="0.8"><polygon points="63,308 92,308 92,277 63,276 63,308"/></g><g fill="#7e7c78" stroke="#4a5058" stroke-linejoin="round" stroke-width="0.8"><polygon points="15,292 12,292 12,282 1,281 1,292 11,293 11,309 15,309 15,292"/></g><g fill="#aca9a3" stroke="#4a5058" stroke-linejoin="round" stroke-width="0.8"><polygon points="113,238 107,235 126,239 131,243 117,240 113,238"/></g><g fill="#7e7c78" stroke="#4a5058" stroke-linejoin="round" stroke-width="0.8"><polygon points="126,239 126,309 131,309 131,243 126,239"/><polygon points="126,309 131,309 131,243 126,239 126,309"/></g><g fill="#aca9a3" stroke="#4a5058" stroke-linejoin="round" stroke-width="0.8"><polygon points="-15,275 1,281 12,282 -1,277 -15,275"/></g><g fill="#7e7c78" stroke="#4a5058" stroke-linejoin="round" stroke-width="0.8"><polygon points="21,293 13,292 13,281 10,275 5,280 5,310 21,309 21,293"/></g><g fill="#6e6d6a" stroke="#4a5058" stroke-linejoin="round" stroke-width="0.8"><polygon points="62,265 62,279 73,279 73,265 62,265"/></g><g fill="#7e7c78" stroke="#4a5058" stroke-linejoin="round" stroke-width="0.8"><polygon points="5,310 21,309 21,282 5,281 5,310"/><polygon points="68,310 78,309 78,266 73,265 73,279 68,278 68,310"/></g><g fill="#aca9a3" stroke="#4a5058" stroke-linejoin="round" stroke-width="0.8"><polygon points="-43,280 -36,281 5,281 21,282 11,282 15,283 6,283 14,283 -10,283 -28,282 -20,282 -25,282 -34,281 -37,281 -65,281 -84,280 -44,280 -43,280"/></g><g fill="#7e7c78" stroke="#4a5058" stroke-linejoin="round" stroke-width="0.8"><polygon points="68,310 78,309 78,265 68,263 68,310"/></g><g fill="#9c9b94" stroke="#4a5058" stroke-linejoin="round" stroke-width="0.8"><polygon points="107,235 82,238 126,239 107,235"/></g><g fill="#6e6d6a" stroke="#4a5058" stroke-linejoin="round" stroke-width="0.8"><polygon points="126,239 82,238 82,310 126,309 126,239"/></g><g fill="#9c9b94" stroke="#4a5058" stroke-linejoin="round" stroke-width="0.8"><polygon points="10,275 -44,274 -36,280 5,280 10,275"/></g><g fill="#6e6d6a" stroke="#4a5058" stroke-linejoin="round" stroke-width="0.8"><polygon points="82,310 126,309 126,239 82,238 82,310"/></g><g fill="#7e7c78" stroke="#4a5058" stroke-linejoin="round" stroke-width="0.8"><polygon points="57,310 57,278 62,279 62,265 54,263 54,310 57,310"/></g><g fill="#6e6d6a" stroke="#4a5058" stroke-linejoin="round" stroke-width="0.8"><polygon points="68,278 57,278 57,310 68,310 68,278"/><polygon points="57,310 68,310 68,263 57,263 57,310"/></g><g fill="#aba8a1" stroke="#4a5058" stroke-linejoin="round" stroke-width="0.8"><polygon points="-1,262 -3,261 54,262 57,263 68,263 78,265 15,264 -1,262"/></g><g fill="#6c6a67" stroke="#4a5058" stroke-linejoin="round" stroke-width="0.8"><polygon points="5,310 5,280 -36,280 -36,310 5,310"/><polygon points="-36,310 5,310 5,281 -36,281 -36,310"/></g><g fill="#7c7a75" stroke="#4a5058" stroke-linejoin="round" stroke-width="0.8"><polygon points="54,310 57,310 57,263 54,262 54,310"/></g><g fill="#6c6a67" stroke="#4a5058" stroke-linejoin="round" stroke-width="0.8"><polygon points="-1,262 -1,268 27,269 27,263 -1,262"/><polygon points="-3,310 54,310 54,263 25,262 25,268 -3,268 -3,310"/><polygon points="-3,310 54,310 54,262 -3,261 -3,310"/></g><g fill="#7c7a75" stroke="#4a5058" stroke-linejoin="round" stroke-width="0.8"><polygon points="131,241 123,234 123,311 131,309 131,241"/></g><g fill="#aba8a1" stroke="#4a5058" stroke-linejoin="round" stroke-width="0.8"><polygon points="131,241 102,240 90,234 123,235 131,241"/></g><g fill="#7c7a75" stroke="#4a5058" stroke-linejoin="round" stroke-width="0.8"><polygon points="123,311 131,309 131,241 123,235 123,311"/></g><g fill="#6c6a67" stroke="#4a5058" stroke-linejoin="round" stroke-width="0.8"><polygon points="118,228 99,227 99,232 118,233 118,228"/><polygon points="67,311 71,311 71,276 67,276 67,311"/><polygon points="67,311 71,311 71,275 67,275 67,311"/></g><g fill="#7c7a75" stroke="#4a5058" stroke-linejoin="round" stroke-width="0.8"><polygon points="89,311 100,310 100,276 89,274 89,311"/><polygon points="89,275 89,311 100,310 100,277 95,265 90,275 89,275"/></g><g fill="#aba8a1" stroke="#4a5058" stroke-linejoin="round" stroke-width="0.8"><polygon points="89,274 100,276 73,276 70,276 67,275 71,275 70,275 64,274 62,274 89,274"/></g><g fill="#9b9992" stroke="#4a5058" stroke-linejoin="round" stroke-width="0.8"><polygon points="95,265 70,264 64,275 90,275 95,265"/></g><g fill="#7c7a75" stroke="#4a5058" stroke-linejoin="round" stroke-width="0.8"><polygon points="48,311 48,280 39,264 30,278 30,312 48,311"/><polygon points="30,312 48,311 48,277 30,274 30,312"/><polygon points="16,311 16,283 3,267 -7,281 -7,313 16,311"/></g><g fill="#6c6a67" stroke="#4a5058" stroke-linejoin="round" stroke-width="0.8"><polygon points="123,234 90,233 90,311 123,311 123,234"/></g><g fill="#7c7a75" stroke="#4a5058" stroke-linejoin="round" stroke-width="0.8"><polygon points="95,230 90,233 123,234 119,230 95,230"/></g><g fill="#6c6a67" stroke="#4a5058" stroke-linejoin="round" stroke-width="0.8"><polygon points="90,311 123,311 123,235 90,234 90,311"/></g><g fill="#aba8a1" stroke="#4a5058" stroke-linejoin="round" stroke-width="0.8"><polygon points="18,276 7,275 -4,274 -6,274 22,274 24,274 30,274 48,277 18,276"/></g><g fill="#6c6a67" stroke="#4a5058" stroke-linejoin="round" stroke-width="0.8"><polygon points="89,275 62,275 62,311 89,311 89,275"/><polygon points="62,311 89,311 89,274 62,274 62,311"/></g><g fill="#9b9992" stroke="#4a5058" stroke-linejoin="round" stroke-width="0.8"><polygon points="39,264 7,263 -4,278 30,278 39,264"/></g><g fill="#7c7a75" stroke="#4a5058" stroke-linejoin="round" stroke-width="0.8"><polygon points="-7,313 16,311 16,278 -7,275 -7,313"/></g><g fill="#aba8a1" stroke="#4a5058" stroke-linejoin="round" stroke-width="0.8"><polygon points="-30,276 -42,275 -7,275 16,278 -15,278 -30,276"/></g><g fill="#7c7a75" stroke="#4a5058" stroke-linejoin="round" stroke-width="0.8"><polygon points="118,247 107,241 107,311 118,310 118,247"/></g><g fill="#6c6a67" stroke="#4a5058" stroke-linejoin="round" stroke-width="0.8"><polygon points="24,312 30,312 30,274 24,274 24,312"/></g><g fill="#9b9992" stroke="#4a5058" stroke-linejoin="round" stroke-width="0.8"><polygon points="-30,267 -42,281 -7,281 3,267 -30,267"/></g><g fill="#6c6a67" stroke="#4a5058" stroke-linejoin="round" stroke-width="0.8"><polygon points="30,278 -4,278 -4,278 24,278 24,312 30,312 30,278"/></g><g fill="#7c7a75" stroke="#4a5058" stroke-linejoin="round" stroke-width="0.8"><polygon points="22,280 22,312 24,312 24,278 22,280"/><polygon points="22,312 24,312 24,274 22,274 22,312"/></g><g fill="#9a9890" stroke="#4a5058" stroke-linejoin="round" stroke-width="0.8"><polygon points="-6,280 22,280 24,278 -4,278 -6,280"/></g><g fill="#7a7873" stroke="#4a5058" stroke-linejoin="round" stroke-width="0.8"><polygon points="83,310 83,275 80,267 78,274 78,311 83,310"/></g><g fill="#6a6864" stroke="#4a5058" stroke-linejoin="round" stroke-width="0.8"><polygon points="22,280 -6,280 -6,313 22,312 22,280"/></g><g fill="#7a7873" stroke="#4a5058" stroke-linejoin="round" stroke-width="0.8"><polygon points="107,311 118,310 118,253 107,248 107,311"/></g><g fill="#6a6864" stroke="#4a5058" stroke-linejoin="round" stroke-width="0.8"><polygon points="-6,313 22,312 22,274 -6,274 -6,313"/></g><g fill="#7a7873" stroke="#4a5058" stroke-linejoin="round" stroke-width="0.8"><polygon points="78,311 83,310 83,273 78,272 78,311"/></g><g fill="#6a6864" stroke="#4a5058" stroke-linejoin="round" stroke-width="0.8"><polygon points="80,235 80,242 107,243 107,236 80,235"/></g><g fill="#8a8782" stroke="#4a5058" stroke-linejoin="round" stroke-width="0.8"><polygon points="80,267 38,266 36,273 59,273 78,274 80,267"/></g><g fill="#6a6864" stroke="#4a5058" stroke-linejoin="round" stroke-width="0.8"><polygon points="78,274 59,273 59,311 78,311 78,274"/><polygon points="59,311 78,311 78,272 59,271 59,311"/></g><g fill="#7a7873" stroke="#4a5058" stroke-linejoin="round" stroke-width="0.8"><polygon points="54,273 54,311 59,311 59,273 54,273"/><polygon points="54,311 59,311 59,271 54,270 54,311"/></g><g fill="#6a6864" stroke="#4a5058" stroke-linejoin="round" stroke-width="0.8"><polygon points="107,241 59,239 59,312 107,311 107,241"/></g><g fill="#7a7873" stroke="#4a5058" stroke-linejoin="round" stroke-width="0.8"><polygon points="41,277 16,274 16,312 41,310 41,277"/></g><g fill="#6a6864" stroke="#4a5058" stroke-linejoin="round" stroke-width="0.8"><polygon points="59,312 107,311 107,248 59,246 59,312"/><polygon points="54,273 30,272 30,311 54,311 54,273"/></g><g fill="#7a7873" stroke="#4a5058" stroke-linejoin="round" stroke-width="0.8"><polygon points="116,274 111,273 111,312 116,311 116,274"/></g><g fill="#6a6864" stroke="#4a5058" stroke-linejoin="round" stroke-width="0.8"><polygon points="30,311 54,311 54,270 30,270 30,311"/></g><g fill="#7a7873" stroke="#4a5058" stroke-linejoin="round" stroke-width="0.8"><polygon points="111,312 116,311 116,269 111,267 111,312"/></g><g fill="#aaa7a0" stroke="#4a5058" stroke-linejoin="round" stroke-width="0.8"><polygon points="-31,271 -69,267 16,268 41,272 -31,271"/></g><g fill="#7a7873" stroke="#4a5058" stroke-linejoin="round" stroke-width="0.8"><polygon points="16,312 41,310 41,272 16,268 16,312"/></g><g fill="#aaa7a0" stroke="#4a5058" stroke-linejoin="round" stroke-width="0.8"><polygon points="6,267 16,274 41,277 28,271 6,267"/><polygon points="-15,258 6,267 28,271 6,262 -15,258"/></g><g fill="#7a7873" stroke="#4a5058" stroke-linejoin="round" stroke-width="0.8"><polygon points="52,282 44,281 44,311 52,311 52,282"/><polygon points="44,311 52,311 52,275 44,274 44,311"/></g><g fill="#6a6864" stroke="#4a5058" stroke-linejoin="round" stroke-width="0.8"><polygon points="111,312 111,273 79,259 47,272 47,312 111,312"/><polygon points="47,312 111,312 111,267 47,266 47,312"/><polygon points="44,281 23,281 23,312 44,311 44,281"/><polygon points="23,312 44,311 44,274 23,274 23,312"/></g><g fill="#7a7873" stroke="#4a5058" stroke-linejoin="round" stroke-width="0.8"><polygon points="104,312 110,311 110,296 104,295 104,312"/></g><g fill="#8a8782" stroke="#4a5058" stroke-linejoin="round" stroke-width="0.8"><polygon points="-15,258 -37,267 6,267 -15,258"/><polygon points="-37,267 -69,273 16,274 6,267 -37,267"/></g><g fill="#6a6864" stroke="#4a5058" stroke-linejoin="round" stroke-width="0.8"><polygon points="16,274 -69,273 -69,313 16,312 16,274"/><polygon points="81,312 104,312 104,295 81,295 81,312"/><polygon points="-69,313 16,312 16,268 -69,267 -69,313"/></g><g fill="#7a7873" stroke="#4a5058" stroke-linejoin="round" stroke-width="0.8"><polygon points="29,248 13,244 13,312 29,311 29,248"/><polygon points="95,201 92,199 92,312 95,312 95,201"/><polygon points="92,312 95,312 95,205 92,203 92,312"/><polygon points="13,312 29,311 29,248 13,243 13,312"/><polygon points="62,173 62,197 66,200 66,177 62,173"/></g><g fill="#6a6864" stroke="#4a5058" stroke-linejoin="round" stroke-width="0.8"><polygon points="11,170 11,194 62,197 62,173 11,170"/></g><g fill="#aaa7a0" stroke="#4a5058" stroke-linejoin="round" stroke-width="0.8"><polygon points="11,198 -14,185 87,191 101,203 92,203 95,205 66,204 17,202 11,198"/></g><g fill="#7a7873" stroke="#4a5058" stroke-linejoin="round" stroke-width="0.8"><polygon points="101,199 87,186 87,314 101,312 101,199"/></g><g fill="#686561" stroke="#4a5058" stroke-linejoin="round" stroke-width="0.8"><polygon points="13,312 13,244 -34,230 -108,240 -108,313 13,312"/></g><g fill="#787670" stroke="#4a5058" stroke-linejoin="round" stroke-width="0.8"><polygon points="87,314 101,312 101,203 87,191 87,314"/></g><g fill="#686561" stroke="#4a5058" stroke-linejoin="round" stroke-width="0.8"><polygon points="-108,313 13,312 13,243 -108,240 -108,313"/><polygon points="87,186 -14,180 -14,315 87,314 87,186"/></g><g fill="#787670" stroke="#4a5058" stroke-linejoin="round" stroke-width="0.8"><polygon points="80,237 73,233 73,315 81,314 80,237"/></g><g fill="#686561" stroke="#4a5058" stroke-linejoin="round" stroke-width="0.8"><polygon points="-14,315 87,314 87,191 -14,185 -14,315"/></g><g fill="#a9a69e" stroke="#4a5058" stroke-linejoin="round" stroke-width="0.8"><polygon points="80,237 42,224 31,219 73,233 80,237"/></g><g fill="#787670" stroke="#4a5058" stroke-linejoin="round" stroke-width="0.8"><polygon points="73,315 80,314 80,235 73,231 73,315"/></g><g fill="#a9a69e" stroke="#4a5058" stroke-linejoin="round" stroke-width="0.8"><polygon points="42,234 6,233 2,231 -13,231 -23,228 73,231 80,235 42,234"/></g><g fill="#787670" stroke="#4a5058" stroke-linejoin="round" stroke-width="0.8"><polygon points="78,315 80,315 80,240 78,239 78,315"/></g><g fill="#686561" stroke="#4a5058" stroke-linejoin="round" stroke-width="0.8"><polygon points="73,315 73,233 31,219 -23,232 -23,316 73,315"/><polygon points="-23,316 73,315 73,231 -23,228 -23,316"/></g><g fill="#787670" stroke="#4a5058" stroke-linejoin="round" stroke-width="0.8"><polygon points="92,273 85,272 85,316 92,315 92,273"/><polygon points="85,316 92,315 92,239 85,236 85,316"/><polygon points="70,316 70,271 78,273 78,315 80,315 80,246 66,240 66,317 70,316"/></g><g fill="#a9a69e" stroke="#4a5058" stroke-linejoin="round" stroke-width="0.8"><polygon points="78,239 80,240 41,239 4,238 -3,235 -25,235 -37,231 -14,232 -19,231 66,233 70,235 85,236 92,239 78,239"/></g><g fill="#686561" stroke="#4a5058" stroke-linejoin="round" stroke-width="0.8"><polygon points="85,272 70,271 70,316 85,316 85,272"/><polygon points="70,316 85,316 85,236 70,235 70,316"/></g><g fill="#a9a69e" stroke="#4a5058" stroke-linejoin="round" stroke-width="0.8"><polygon points="22,227 66,240 80,246 41,234 22,227"/></g><g fill="#787670" stroke="#4a5058" stroke-linejoin="round" stroke-width="0.8"><polygon points="66,317 70,316 70,235 66,233 66,317"/></g><g fill="#686561" stroke="#4a5058" stroke-linejoin="round" stroke-width="0.8"><polygon points="21,230 21,227 -7,218 -37,225 -37,318 -14,317 -14,239 21,230"/><polygon points="66,317 66,240 22,227 -19,237 -19,318 66,317"/><polygon points="-19,318 66,317 66,233 -19,231 -19,318"/></g><g fill="#a8a49c" stroke="#4a5058" stroke-linejoin="round" stroke-width="1.2"><polygon points="52,245 3,244 -65,242 -87,237 -74,238 -104,231 24,235 52,245"/></g><g fill="#76736e" stroke="#4a5058" stroke-linejoin="round" stroke-width="1.2"><polygon points="24,323 52,319 52,246 40,242 40,251 24,246 24,323"/><polygon points="24,323 52,319 52,245 24,235 24,323"/></g><g fill="#65635f" stroke="#4a5058" stroke-linejoin="round" stroke-width="1.2"><polygon points="-74,249 -14,233 40,251 40,242 -13,224 -87,238 -87,322 -74,322 -74,249"/></g><g fill="#a8a49c" stroke="#4a5058" stroke-linejoin="round" stroke-width="1.2"><polygon points="24,246 40,251 -14,233 -37,225 24,246"/></g><g fill="#65635f" stroke="#4a5058" stroke-linejoin="round" stroke-width="1.2"><polygon points="24,323 24,246 -37,225 -104,243 -104,325 24,323"/><polygon points="-104,325 24,323 24,235 -104,231 -104,325"/></g><g fill="#76736e" stroke="#4a5058" stroke-linejoin="round" stroke-width="1.2"><polygon points="15,205 -16,189 -16,325 15,321 15,205"/></g><g fill="#a8a49c" stroke="#4a5058" stroke-linejoin="round" stroke-width="1.2"><polygon points="-60,195 -125,192 -185,171 -16,182 15,199 -60,195"/></g><g fill="#76736e" stroke="#4a5058" stroke-linejoin="round" stroke-width="1.2"><polygon points="-16,325 15,321 15,199 -16,182 -16,325"/></g><g fill="#a8a49c" stroke="#4a5058" stroke-linejoin="round" stroke-width="1.2"><polygon points="-106,146 -16,189 15,205 -60,170 -106,146"/></g></svg>