<svg viewBox="0 0 900 480" xmlns="http://www.w3.org/2000/svg"><rect width="900" height="480" fill="#fff"/><g fill="#fff" stroke="#232a30" stroke-linejoin="round" stroke-width=".6"><polygon points="637,295 631,295 631,303 637,303 637,295"/><polygon points="649,304 653,304 653,197 649,200 649,304"/><polygon points="618,304 621,304 621,288 618,288 618,304"/><polygon points="539,305 562,305 562,283 539,283 539,305"/><polygon points="579,305 579,286 562,279 539,286 539,305 579,305"/><polygon points="667,169 649,169 654,164 673,163 667,169"/><polygon points="562,305 579,305 579,283 562,283 562,305"/><polygon points="637,303 647,303 647,292 637,292 637,303"/><polygon points="581,305 594,305 594,291 581,291 581,305"/><polygon points="647,295 637,295 637,303 647,303 647,295"/><polygon points="621,290 618,290 618,305 621,306 621,290"/><polygon points="609,305 609,296 594,290 581,296 581,305 609,305"/><polygon points="594,305 609,305 609,291 594,291 594,305"/><polygon points="653,304 653,187 654,186 654,164 649,169 649,304 653,304"/><polygon points="621,304 628,304 628,288 621,288 621,304"/><polygon points="691,211 684,211 702,201 710,201 691,211"/><polygon points="636,306 636,290 628,283 621,290 621,306 636,306"/><polygon points="628,304 636,304 636,288 628,288 628,304"/><polygon points="684,203 679,203 698,192 703,192 684,203"/><polygon points="699,222 691,223 710,214 719,214 699,222"/><polygon points="708,233 701,233 719,227 726,227 708,233"/><polygon points="654,164 654,186 673,185 673,163 654,164"/><polygon points="716,242 709,242 726,237 734,237 716,242"/><polygon points="601,305 603,305 603,283 601,283 601,305"/><polygon points="539,276 539,276 554,276 567,276 579,276 601,276 597,277 538,277 539,276"/><polygon points="603,288 601,288 601,305 603,305 603,288"/><polygon points="566,268 539,281 539,284 553,282 566,284 578,279 600,284 600,281 566,268"/><polygon points="645,304 652,305 652,191 645,197 645,304"/><polygon points="220,309 223,309 223,246 220,246 220,309"/><polygon points="220,309 223,309 223,245 220,245 220,309"/><polygon points="679,191 656,192 659,190 667,190 673,185 654,186 653,187 645,187 652,180 662,180 663,179 669,177 680,176 687,176 693,176 699,178 679,191"/><polygon points="539,306 554,306 554,276 539,276 539,306"/><polygon points="603,305 614,305 614,283 603,283 603,305"/><polygon points="614,288 603,288 603,305 614,305 614,288"/><polygon points="554,306 567,306 567,276 554,276 554,306"/><polygon points="579,279 567,284 554,282 539,284 539,306 601,306 601,283 579,279"/><polygon points="567,306 579,306 579,276 567,276 567,306"/><polygon points="404,292 401,292 401,307 404,307 404,292"/><polygon points="652,180 645,187 645,304 652,305 652,180"/><polygon points="579,306 601,306 601,276 579,276 579,306"/><polygon points="615,305 623,305 623,282 615,282 615,305"/><polygon points="615,305 642,305 642,284 633,282 623,284 623,288 615,288 615,305"/><polygon points="623,305 633,305 633,282 623,282 623,305"/><polygon points="401,307 404,307 404,291 401,291 401,307"/><polygon points="633,305 642,305 642,282 633,282 633,305"/><polygon points="545,306 546,306 546,257 545,258 545,306"/><polygon points="333,307 401,307 401,291 333,291 333,307"/><polygon points="401,292 333,292 333,307 401,307 401,292"/><polygon points="546,259 545,260 545,306 546,306 546,259"/><polygon points="795,246 768,251 768,304 795,304 795,246"/><polygon points="546,259 593,259 592,256 559,256 546,259"/><polygon points="179,239 222,238 270,248 233,248 231,248 228,248 220,246 223,246 179,239"/><polygon points="652,305 662,305 662,191 652,191 652,305"/><polygon points="662,180 652,180 652,305 662,305 662,180"/><polygon points="546,306 593,306 593,257 546,257 546,306"/><polygon points="546,306 593,306 593,259 546,259 546,306"/><polygon points="594,306 594,256 592,254 591,258 591,260 592,256 593,259 593,306 594,306"/><polygon points="662,305 663,305 663,190 662,191 662,305"/><polygon points="270,246 222,236 222,311 270,309 270,246"/><polygon points="663,179 662,180 662,305 663,305 663,179"/><polygon points="702,305 710,305 710,190 702,190 702,305"/><polygon points="710,305 719,305 719,190 710,190 710,305"/><polygon points="719,305 726,305 726,190 719,190 719,305"/><polygon points="702,305 750,305 750,256 742,256 742,248 734,248 734,237 726,237 726,227 719,227 719,214 710,214 710,201 702,201 702,305"/><polygon points="698,305 703,305 703,189 698,190 698,305"/><polygon points="726,305 734,305 734,189 726,190 726,305"/><polygon points="703,192 698,192 698,305 703,305 703,192"/><polygon points="593,306 594,306 594,256 593,257 593,306"/><polygon points="627,254 592,254 594,256 646,256 627,254"/><polygon points="734,305 742,305 742,189 734,189 734,305"/><polygon points="395,307 395,278 394,275 391,277 391,307 395,307"/><polygon points="742,305 750,305 750,189 742,189 742,305"/><polygon points="663,305 669,305 669,188 663,190 663,305"/><polygon points="441,307 441,285 439,283 438,285 438,307 441,307"/><polygon points="669,177 663,179 663,305 669,305 669,177"/><polygon points="560,261 588,261 586,262 535,262 536,261 560,261"/><polygon points="372,275 369,277 391,277 394,275 372,275"/><polygon points="391,307 395,307 395,282 391,281 391,307"/><polygon points="438,307 441,307 441,286 438,286 438,307"/><polygon points="417,283 414,285 438,285 439,283 417,283"/><polygon points="536,306 560,306 560,261 536,261 536,306"/><polygon points="699,178 693,176 693,305 699,305 699,178"/><polygon points="594,306 646,306 646,256 594,256 594,306"/><polygon points="646,256 594,256 594,306 646,306 646,256"/><polygon points="693,305 699,305 699,189 693,187 693,305"/><polygon points="588,307 588,262 560,254 536,262 536,306 588,307"/><polygon points="669,305 680,305 680,187 669,188 669,305"/><polygon points="560,306 588,307 588,261 560,261 560,306"/><polygon points="369,307 391,307 391,281 369,281 369,307"/><polygon points="797,241 795,246 843,245 837,240 797,241"/><polygon points="391,277 369,277 369,307 391,307 391,277"/><polygon points="680,176 669,177 669,305 680,305 680,176"/><polygon points="469,275 466,274 466,308 469,308 469,275"/><polygon points="693,176 687,176 687,305 693,305 693,176"/><polygon points="680,305 687,305 687,187 680,187 680,305"/><polygon points="687,305 693,305 693,187 687,187 687,305"/><polygon points="414,307 438,307 438,286 414,286 414,307"/><polygon points="687,176 680,176 680,305 687,305 687,176"/><polygon points="795,305 843,305 843,242 795,242 795,305"/><polygon points="438,285 414,285 414,307 438,307 438,285"/><polygon points="843,245 795,246 795,304 843,304 843,245"/><polygon points="513,284 511,283 511,307 513,307 513,284"/><polygon points="222,311 270,309 270,248 222,238 222,311"/><polygon points="471,307 474,307 474,277 471,277 471,307"/></g><g fill="#fff" stroke="#232a30" stroke-linejoin="round" stroke-width="1"><polygon points="474,281 491,273 484,270 471,276 471,307 474,307 474,281"/><polygon points="787,304 796,305 796,273 787,274 787,304"/><polygon points="466,308 469,308 469,269 466,267 466,308"/><polygon points="537,306 560,306 560,275 537,275 537,306"/><polygon points="560,306 560,267 537,277 537,306 560,306"/><polygon points="560,306 572,306 572,275 560,275 560,306"/><polygon points="607,306 613,307 613,232 607,235 607,306"/><polygon points="607,236 613,232 635,232 628,236 607,236"/><polygon points="796,281 787,282 787,304 796,305 796,281"/><polygon points="604,307 604,276 572,261 560,267 560,306 604,307"/><polygon points="396,308 403,308 403,290 396,290 396,308"/><polygon points="846,274 787,274 796,273 856,273 846,274"/><polygon points="572,306 604,307 604,275 572,275 572,306"/><polygon points="511,307 513,307 513,278 511,277 511,307"/><polygon points="403,308 409,308 409,290 403,290 403,308"/><polygon points="508,277 511,277 513,278 473,278 471,277 474,277 472,277 490,277 508,277"/><polygon points="403,292 396,296 396,308 437,308 437,296 409,296 403,292"/><polygon points="409,308 437,308 437,290 409,290 409,308"/><polygon points="604,307 607,307 607,274 604,274 604,307"/><polygon points="607,307 607,277 604,276 604,307 607,307"/><polygon points="849,305 860,305 860,287 849,288 849,305"/><polygon points="860,285 849,285 849,305 860,305 860,285"/><polygon points="591,307 593,307 593,244 591,246 591,307"/><polygon points="591,307 593,307 593,251 591,252 591,307"/><polygon points="560,306 562,307 562,287 560,288 560,306"/><polygon points="796,305 856,305 856,273 796,273 796,305"/><polygon points="856,281 796,281 796,305 856,305 856,281"/><polygon points="472,307 490,307 490,277 472,277 472,307"/><polygon points="472,307 511,307 511,283 508,283 508,281 490,273 472,281 472,307"/><polygon points="562,283 560,284 560,306 562,307 562,283"/><polygon points="708,306 719,307 719,249 708,252 708,306"/><polygon points="490,307 508,307 508,277 490,277 490,307"/><polygon points="800,305 809,305 809,257 800,258 800,305"/><polygon points="508,307 511,307 511,277 508,277 508,307"/><polygon points="410,308 410,285 406,272 402,284 402,285 406,277 409,286 409,308 410,308"/><polygon points="146,293 157,299 176,298 166,294 146,293"/><polygon points="824,247 824,260 833,259 833,246 824,247"/><polygon points="860,305 912,305 912,287 860,287 860,305"/><polygon points="809,259 800,260 800,305 809,305 809,259"/><polygon points="899,305 931,305 931,290 899,291 899,305"/><polygon points="912,285 860,285 860,305 912,305 912,285"/><polygon points="432,264 501,264 503,267 466,267 469,269 447,269 443,268 440,268 432,264"/><polygon points="411,308 411,286 408,277 404,285 404,309 411,308"/><polygon points="931,294 890,295 890,305 931,305 931,294"/><polygon points="607,306 620,307 620,228 620,228 620,218 613,223 613,232 607,236 607,306"/><polygon points="940,305 940,287 923,286 899,288 899,305 940,305"/><polygon points="590,307 593,307 593,243 590,244 590,307"/><polygon points="562,307 590,307 590,287 562,287 562,307"/><polygon points="590,283 562,283 562,307 590,307 590,283"/><polygon points="809,305 833,305 833,257 809,257 809,305"/><polygon points="537,307 540,308 540,275 537,278 537,307"/><polygon points="809,305 867,305 867,241 833,246 833,259 809,259 809,305"/><polygon points="404,309 411,308 411,279 404,278 404,309"/><polygon points="833,305 867,305 867,257 833,257 833,305"/><polygon points="388,284 392,272 397,285 397,284 392,269 386,283 386,309 388,309 388,284"/><polygon points="409,278 407,284 436,284 438,278 409,278"/><polygon points="157,313 157,299 146,293 134,299 134,313 157,313"/><polygon points="392,269 360,269 354,283 386,283 392,269"/><polygon points="613,307 620,307 620,228 613,232 613,307"/><polygon points="608,252 591,252 593,251 602,251 609,248 599,248 601,246 621,246 608,252"/><polygon points="719,236 724,235 751,234 745,236 719,236"/><polygon points="635,222 613,223 620,218 643,218 635,222"/><polygon points="179,311 222,311 222,238 179,239 179,311"/><polygon points="402,284 406,272 392,272 388,284 402,284"/><polygon points="222,236 179,237 179,311 222,311 222,236"/><polygon points="436,284 436,286 433,285 433,309 441,308 441,285 438,278 436,284"/><polygon points="596,308 596,230 593,232 593,235 590,237 590,307 596,308"/><polygon points="564,308 564,263 563,264 563,276 562,276 562,307 564,308"/><polygon points="503,264 501,260 501,309 503,308 503,264"/><polygon points="563,307 564,308 564,258 563,259 563,307"/><polygon points="407,284 407,286 436,286 436,284 407,284"/><polygon points="433,309 440,308 440,285 433,283 433,309"/><polygon points="563,264 564,263 594,263 591,264 563,264"/><polygon points="724,235 724,241 751,241 751,234 724,235"/><polygon points="388,309 402,309 402,278 388,278 388,309"/><polygon points="470,253 501,260 503,264 470,253"/><polygon points="404,285 402,285 402,284 388,284 388,309 404,309 404,285"/><polygon points="593,307 596,308 596,241 593,243 593,307"/><polygon points="402,309 404,309 404,278 402,278 402,309"/><polygon points="734,307 734,248 719,240 708,254 708,306 734,307"/><polygon points="540,276 537,279 537,307 540,308 540,276"/><polygon points="540,275 563,275 557,278 537,278 540,275"/><polygon points="386,309 388,309 388,278 386,278 386,309"/><polygon points="354,309 386,309 386,278 354,278 354,309"/><polygon points="386,283 354,283 354,309 386,309 386,283"/><polygon points="751,241 724,241 722,240 719,240 734,248 795,247 749,241 751,241"/><polygon points="837,306 854,306 854,270 837,272 837,306"/><polygon points="719,307 734,307 734,246 719,249 719,307"/><polygon points="762,262 795,257 737,257 743,256 809,256 768,261 762,262"/><polygon points="501,309 503,308 503,267 501,264 501,309"/><polygon points="564,258 563,258 564,257 565,256 601,256 597,258 594,258 591,260 562,260 563,259 564,258"/><polygon points="397,292 395,292 395,310 397,309 397,292"/><polygon points="596,308 599,308 599,241 596,241 596,308"/><polygon points="863,306 895,307 895,242 863,247 863,306"/><polygon points="609,248 609,230 596,230 596,308 599,308 599,248 609,248"/><polygon points="470,253 432,261 501,260 470,253"/><polygon points="620,218 620,228 643,228 643,218 620,218"/><polygon points="734,246 737,246 743,244 809,244 768,251 708,252 719,249 734,246"/><polygon points="395,310 397,309 397,291 395,291 395,310"/><polygon points="563,308 564,308 564,257 563,258 563,308"/><polygon points="403,309 433,309 433,283 403,284 403,309"/><polygon points="433,285 403,285 403,309 433,309 433,285"/><polygon points="367,310 395,310 395,291 367,291 367,310"/><polygon points="599,308 601,308 601,239 599,241 599,308"/><polygon points="395,310 395,292 382,285 367,292 367,310 395,310"/><polygon points="618,307 622,308 622,225 618,228 618,307"/><polygon points="601,246 599,248 599,308 601,308 601,246"/><polygon points="924,247 863,247 895,242 903,241 970,241 924,247"/><polygon points="863,306 903,307 903,253 895,233 895,232 863,249 863,306"/><polygon points="565,308 565,257 564,247 563,252 563,308 565,308"/><polygon points="622,241 618,216 618,307 622,308 622,241"/><polygon points="648,241 643,216 618,216 622,241 648,241"/><polygon points="564,308 565,308 565,256 564,257 564,308"/><polygon points="601,308 621,308 621,239 601,239 601,308"/><polygon points="551,269 540,276 563,276 551,269"/><polygon points="432,309 501,309 501,264 432,264 432,309"/><polygon points="621,246 601,246 601,308 621,308 621,246"/><polygon points="564,247 565,257 601,257 599,246 564,247"/><polygon points="873,307 873,274 854,263 837,276 837,306 873,307"/><polygon points="501,260 432,261 432,309 501,309 501,260"/><polygon points="734,307 737,307 737,246 734,246 734,307"/><polygon points="622,308 648,308 648,225 622,225 622,308"/><polygon points="737,307 737,257 795,257 795,247 734,248 734,307 737,307"/><polygon points="648,241 622,241 622,308 648,308 648,241"/><polygon points="540,308 563,308 563,275 540,275 540,308"/><polygon points="565,308 601,308 601,256 565,256 565,308"/><polygon points="563,276 540,276 540,308 563,308 563,276"/><polygon points="601,257 565,257 565,308 601,308 601,257"/><polygon points="46,313 46,271 29,264 11,269 11,314 46,313"/><polygon points="854,306 873,307 873,269 854,270 854,306"/><polygon points="854,263 873,274 904,274 884,262 854,263"/><polygon points="9,269 -9,268 11,268 46,270 27,270 9,269"/><polygon points="737,307 743,307 743,244 737,246 737,307"/><polygon points="743,256 737,257 737,307 743,307 743,256"/><polygon points="11,314 46,313 46,270 11,268 11,314"/><polygon points="895,232 895,233 961,233 961,232 895,232"/><polygon points="895,307 903,307 903,241 895,242 895,307"/><polygon points="9,264 -9,269 11,269 29,264 9,264"/><polygon points="743,307 809,308 809,244 743,244 743,307"/><polygon points="809,256 743,256 743,307 809,308 809,256"/><polygon points="970,253 961,233 895,233 903,253 970,253"/><polygon points="18,243 -55,235 -55,316 18,313 18,243"/><polygon points="873,307 904,307 904,269 873,269 873,307"/><polygon points="904,274 873,274 873,307 904,307 904,274"/><polygon points="97,233 34,223 34,316 97,313 97,233"/><polygon points="-9,314 11,314 11,268 -9,268 -9,314"/><polygon points="11,269 -9,269 -9,314 11,314 11,269"/><polygon points="164,237 131,232 131,314 164,313 164,237"/><polygon points="362,311 362,294 358,273 353,293 353,312 362,311"/><polygon points="-55,316 18,313 18,244 -55,237 -55,316"/><polygon points="131,314 164,313 164,233 131,227 131,314"/><polygon points="-65,230 -55,235 18,243 9,239 -65,230"/><polygon points="353,312 362,311 362,281 353,280 353,312"/><polygon points="101,207 1,186 33,185 127,207 101,207"/><polygon points="324,273 318,293 353,293 358,273 324,273"/><polygon points="34,316 97,313 97,234 34,225 34,316"/><polygon points="127,198 33,174 33,316 127,313 127,198"/><polygon points="318,312 353,312 353,280 318,280 318,312"/><polygon points="353,293 318,293 318,312 353,312 353,293"/><polygon points="234,162 234,190 245,194 245,168 234,162"/><polygon points="742,308 749,309 749,213 742,215 742,308"/><polygon points="-55,237 18,244 -78,245 -198,235 -85,233 -81,234 -52,233 -27,236 -55,237"/><polygon points="559,310 561,311 561,160 559,168 559,310"/><polygon points="821,273 804,274 806,274 803,274 778,274 775,274 789,273 821,273"/><polygon points="215,163 215,190 234,190 234,162 215,163"/><polygon points="775,309 789,309 789,261 775,263 775,309"/><polygon points="467,220 466,219 466,311 467,311 467,220"/><polygon points="804,256 804,274 821,273 821,254 804,256"/><polygon points="804,256 821,254 834,249 816,251 804,256"/><polygon points="466,311 467,311 467,216 466,215 466,311"/><polygon points="33,316 127,313 127,207 33,185 33,316"/><polygon points="88,200 117,200 184,216 180,216 174,216 163,216 156,216 107,205 110,205 88,200"/><polygon points="660,309 669,310 669,186 660,191 660,309"/><polygon points="254,196 199,175 199,315 254,312 254,196"/><polygon points="747,187 703,188 707,186 752,185 747,187"/><polygon points="575,179 577,175 584,175 583,177 661,176 659,177 575,179"/><polygon points="134,198 108,192 108,315 134,314 134,198"/><polygon points="22,316 34,316 34,225 22,225 22,316"/><polygon points="256,225 196,209 277,208 323,224 256,225"/><polygon points="34,223 22,223 22,316 34,316 34,223"/><polygon points="345,271 337,269 337,312 345,311 345,271"/><polygon points="124,185 199,183 254,202 233,203 190,204 124,185"/><polygon points="108,315 134,314 134,227 108,223 108,315"/><polygon points="323,221 277,203 277,315 323,312 323,221"/><polygon points="660,309 677,310 677,186 669,185 669,179 660,195 660,309"/><polygon points="749,309 765,310 765,207 749,213 749,309"/><polygon points="337,312 345,311 345,276 337,275 337,312"/><polygon points="789,254 789,273 775,274 775,308 805,310 805,252 789,254"/><polygon points="589,159 637,158 638,157 666,157 662,160 588,161 589,159"/><polygon points="117,316 184,313 184,216 117,200 117,316"/><polygon points="137,199 137,212 117,208 117,316 184,313 184,211 137,199"/><polygon points="712,179 669,179 669,185 712,184 712,179"/><polygon points="22,223 -13,218 -13,317 22,316 22,223"/><polygon points="199,315 254,312 254,202 199,183 199,315"/><polygon points="68,315 108,315 108,223 68,223 68,315"/><polygon points="68,315 108,315 108,192 89,192 89,228 68,228 68,315"/><polygon points="747,178 747,182 758,182 758,178 747,178"/><polygon points="896,225 896,245 938,240 938,217 896,225"/><polygon points="744,171 709,172 719,166 755,166 744,171"/><polygon points="896,225 938,217 979,217 934,224 896,225"/><polygon points="789,309 805,310 805,259 789,261 789,309"/><polygon points="107,315 110,315 110,205 107,205 107,315"/><polygon points="649,137 652,134 669,133 666,137 649,137"/><polygon points="110,315 110,213 137,212 137,199 107,200 107,315 110,315"/><polygon points="294,274 285,273 329,272 343,275 337,275 345,276 328,276 317,276 307,275 303,275 294,274"/><polygon points="669,310 677,310 677,180 669,186 669,310"/><polygon points="-13,317 22,316 22,225 -13,220 -13,317"/><polygon points="561,196 561,196 559,202 559,310 572,314 572,175 561,196"/><polygon points="758,182 747,182 755,179 766,179 758,182"/><polygon points="719,183 719,166 709,172 709,182 712,179 712,184 720,185 720,310 723,310 723,181 719,183"/><polygon points="277,315 323,312 323,224 277,208 277,315"/><polygon points="840,239 821,242 789,254 805,252 840,239"/><polygon points="34,225 97,234 47,235 -131,211 -13,209 8,213 -14,213 10,217 -16,217 -1,219 -13,220 22,225 34,225"/><polygon points="652,134 652,139 649,139 649,312 669,312 669,133 652,134"/><polygon points="649,312 669,312 669,154 649,154 649,312"/><polygon points="942,247 893,248 869,248 955,236 1046,235 942,247"/><polygon points="348,172 348,199 380,198 380,171 348,172"/><polygon points="720,185 712,184 669,185 677,186 688,186 687,186 711,186 708,186 720,185"/><polygon points="471,217 462,201 462,313 471,311 471,217"/><polygon points="719,166 719,183 766,182 766,179 755,179 755,166 719,166"/><polygon points="708,310 720,310 720,185 708,186 708,310"/><polygon points="708,310 720,310 720,181 708,181 708,310"/><polygon points="869,309 955,311 955,236 869,248 869,309"/><polygon points="749,209 749,218 742,242 742,308 805,311 805,202 797,205 797,192 775,200 775,160 765,164 765,204 749,209"/><polygon points="782,209 749,209 765,204 779,203 789,200 775,200 797,192 836,192 782,209"/><polygon points="765,310 775,310 775,204 765,207 765,310"/><polygon points="779,164 765,164 775,160 789,159 779,164"/><polygon points="765,207 775,204 797,196 805,193 845,193 773,215 742,215 749,213 765,207"/><polygon points="720,310 723,310 723,179 720,181 720,310"/><polygon points="677,310 688,310 688,180 677,180 677,310"/><polygon points="677,310 688,310 688,186 677,186 677,310"/><polygon points="380,171 380,198 367,189 367,203 386,215 386,177 380,171"/><polygon points="343,312 343,268 337,258 329,265 329,313 343,312"/><polygon points="893,246 869,246 955,234 970,234 1046,233 942,245 893,246"/><polygon points="670,158 650,159 654,155 674,155 670,158"/><polygon points="805,310 865,310 865,258 805,259 805,310"/><polygon points="1,316 33,316 33,185 1,186 1,316"/><polygon points="489,269 486,267 507,273 508,275 489,269"/><polygon points="865,310 864,251 840,239 805,252 805,310 865,310"/><polygon points="33,174 1,175 1,316 33,316 33,174"/><polygon points="688,310 691,311 691,178 688,180 688,310"/><polygon points="561,311 572,314 572,132 561,160 561,311"/><polygon points="101,315 101,261 88,251 74,259 74,316 101,315"/><polygon points="598,145 561,196 572,175 616,113 598,145"/><polygon points="688,310 697,311 697,152 691,156 691,165 687,167 687,186 688,186 688,310"/><polygon points="775,160 775,200 789,200 789,159 775,160"/><polygon points="654,312 674,312 674,149 654,149 654,312"/><polygon points="674,155 654,155 654,312 674,312 674,155"/><polygon points="329,313 343,312 343,275 329,272 329,313"/><polygon points="88,316 117,316 117,200 88,200 88,316"/><polygon points="117,208 88,208 88,316 117,316 117,208"/><polygon points="462,314 471,311 471,214 462,198 462,314"/><polygon points="337,258 294,258 285,266 329,265 337,258"/><polygon points="74,316 101,315 101,262 74,259 74,316"/><polygon points="766,182 719,183 723,181 734,181 756,170 796,169 766,182"/><polygon points="812,310 826,311 826,234 812,237 812,310"/><polygon points="44,251 29,259 74,259 88,251 44,251"/><polygon points="709,162 716,162 708,167 687,167 691,165 704,165 709,162"/><polygon points="124,315 199,315 199,183 124,185 124,315"/><polygon points="812,242 826,239 883,239 866,241 812,242"/><polygon points="663,140 684,139 680,143 662,144 660,145 658,145 654,149 674,149 670,152 650,153 649,154 669,154 656,166 559,168 561,160 572,132 679,129 673,135 668,135 663,140"/><polygon points="691,311 697,311 697,174 691,178 691,311"/><polygon points="199,175 175,176 124,177 124,315 199,315 199,175"/><polygon points="704,155 691,156 697,152 710,151 704,155"/><polygon points="955,234 869,246 869,309 955,311 955,234"/><polygon points="826,239 812,242 812,310 826,310 826,239"/><polygon points="660,128 658,128 649,139 652,139 649,142 638,142 637,144 598,145 616,112 679,111 673,117 668,117 663,122 684,122 680,127 662,127 660,128"/><polygon points="826,234 883,233 866,236 812,237 826,234"/><polygon points="734,161 708,162 727,150 756,149 734,161"/><polygon points="709,162 709,168 716,168 716,162 709,162"/><polygon points="29,316 74,316 74,259 29,260 29,316"/><polygon points="775,310 797,311 797,196 775,204 775,310"/><polygon points="74,259 29,259 29,316 74,316 74,259"/><polygon points="697,311 703,311 703,174 697,174 697,311"/><polygon points="703,311 703,167 710,167 710,151 697,152 697,311 703,311"/><polygon points="285,313 329,313 329,272 285,273 285,313"/><polygon points="329,265 285,266 285,313 329,313 329,265"/><polygon points="703,311 705,311 705,173 703,174 703,311"/><polygon points="10,215 -14,211 -14,318 10,318 10,215"/><polygon points="727,150 708,162 708,167 716,162 716,168 720,165 727,168 727,150"/><polygon points="487,268 507,279 507,273 486,267 469,273 469,279 487,268"/><polygon points="826,311 883,311 883,233 826,234 826,311"/><polygon points="196,315 277,315 277,208 196,209 196,315"/><polygon points="883,239 826,239 826,310 883,311 883,239"/><polygon points="277,203 196,205 196,315 277,315 277,203"/><polygon points="506,315 508,312 508,275 507,273 507,279 506,277 506,315"/><polygon points="-14,319 10,318 10,217 -14,213 -14,319"/><polygon points="506,315 508,312 508,279 506,276 506,315"/><polygon points="711,311 711,169 705,166 703,167 703,311 711,311"/><polygon points="705,311 711,312 711,169 705,173 705,311"/><polygon points="826,311 841,311 841,271 826,272 826,311"/><polygon points="855,260 826,267 841,266 871,259 855,260"/><polygon points="332,190 332,203 367,203 367,189 332,190"/><polygon points="711,169 727,168 720,165 705,166 711,169"/><polygon points="663,313 684,313 684,139 663,140 663,313"/><polygon points="684,122 663,122 663,313 684,313 684,122"/><polygon points="841,271 903,271 886,272 855,272 826,272 841,271"/><polygon points="841,266 826,267 826,311 841,311 841,266"/><polygon points="462,201 367,203 367,206 397,205 397,313 462,313 462,201"/><polygon points="397,313 462,314 462,198 397,200 397,313"/><polygon points="395,313 397,313 397,205 395,204 395,313"/><polygon points="395,314 397,313 397,200 395,199 395,314"/><polygon points="365,313 365,205 367,206 367,203 363,200 363,313 365,313"/><polygon points="711,312 796,312 796,168 711,169 711,312"/><polygon points="365,313 395,314 395,199 365,199 365,313"/><polygon points="796,169 756,170 756,149 727,150 727,168 711,169 711,311 796,312 796,169"/><polygon points="395,204 365,205 365,313 395,313 395,204"/><polygon points="797,192 797,205 836,204 836,192 797,192"/><polygon points="8,192 -13,188 -13,319 8,319 8,192"/><polygon points="363,314 365,313 365,199 363,197 363,314"/><polygon points="841,311 903,312 903,271 841,271 841,311"/><polygon points="797,311 805,311 805,193 797,196 797,311"/><polygon points="327,314 363,314 363,197 327,198 327,314"/><polygon points="903,312 903,266 871,259 841,266 841,311 903,312"/><polygon points="363,200 327,201 327,313 363,313 363,200"/><polygon points="797,205 805,202 845,202 836,204 797,205"/><polygon points="-13,319 8,319 8,213 -13,209 -13,319"/><polygon points="843,312 858,312 858,273 843,274 843,312"/><polygon points="465,315 506,315 506,276 465,276 465,315"/><polygon points="805,311 845,311 845,193 805,193 805,311"/><polygon points="506,315 506,277 484,266 465,278 465,315 506,315"/><polygon points="845,202 805,202 805,311 845,311 845,202"/><polygon points="875,261 843,267 858,265 892,260 875,261"/><polygon points="858,273 922,273 903,274 875,274 843,274 858,273"/><polygon points="858,265 843,267 843,312 858,312 858,265"/><polygon points="572,314 679,314 679,129 572,132 572,314"/><polygon points="679,111 616,112 616,113 572,175 572,314 679,314 679,111"/><polygon points="288,294 272,294 272,314 288,313 288,294"/><polygon points="858,312 922,313 922,273 858,273 858,312"/><polygon points="922,313 922,265 892,260 858,265 858,312 922,313"/><polygon points="560,315 563,315 563,209 560,214 560,315"/><polygon points="499,226 498,221 498,317 499,316 499,226"/><polygon points="563,209 712,207 702,212 640,212 622,213 614,213 575,213 560,214 563,209"/><polygon points="272,294 142,294 142,313 272,314 272,294"/><polygon points="756,313 768,314 768,99 756,109 756,313"/><polygon points="563,221 560,224 560,315 563,315 563,221"/><polygon points="622,185 622,224 627,220 627,179 622,185"/><polygon points="563,221 578,220 575,224 560,224 563,221"/><polygon points="622,185 627,179 647,178 640,184 622,185"/><polygon points="578,220 578,208 576,205 575,212 575,224 578,220"/><polygon points="498,317 499,316 499,226 498,222 498,317"/><polygon points="768,92 756,102 756,313 768,314 768,92"/><polygon points="702,206 640,207 647,202 712,201 702,206"/><polygon points="576,205 578,208 619,207 617,204 576,205"/><polygon points="768,314 773,314 773,99 768,99 768,314"/><polygon points="773,92 768,92 768,314 773,314 773,92"/><polygon points="563,315 712,316 712,207 563,209 563,315"/><polygon points="647,202 647,178 627,179 627,220 619,220 619,207 578,208 578,220 563,221 563,315 712,316 712,201 647,202"/><polygon points="499,226 489,226 328,228 301,218 366,217 373,221 421,220 417,217 486,216 487,220 498,222 499,226"/><polygon points="773,314 778,314 778,95 773,99 773,314"/><polygon points="498,221 487,219 487,317 498,317 498,221"/><polygon points="487,317 487,219 489,226 489,217 486,204 486,318 487,317"/><polygon points="550,316 552,317 552,241 550,245 550,316"/><polygon points="373,317 421,317 421,220 373,221 373,317"/><polygon points="487,317 498,317 498,222 487,220 487,317"/><polygon points="421,209 372,210 373,317 421,317 421,209"/><polygon points="752,314 756,314 756,92 752,95 752,314"/><polygon points="611,214 611,236 618,232 618,208 611,214"/><polygon points="552,232 550,237 550,316 552,317 552,232"/><polygon points="756,90 752,93 752,314 756,314 756,90"/><polygon points="552,241 731,239 717,243 647,244 611,244 550,245 552,241"/><polygon points="647,214 611,214 618,208 656,208 647,214"/><polygon points="761,89 785,88 778,94 756,94 752,93 756,90 761,89"/><polygon points="372,210 366,206 366,318 373,317 372,210"/><polygon points="552,232 618,232 611,236 550,237 552,232"/><polygon points="756,314 761,314 761,90 756,92 756,314"/><polygon points="761,89 756,90 756,314 761,314 761,89"/><polygon points="717,235 647,236 656,231 731,230 717,235"/><polygon points="366,318 373,317 373,221 366,217 366,318"/><polygon points="797,73 773,92 773,314 778,314 778,94 785,88 785,314 797,315 797,73"/><polygon points="761,314 785,314 785,90 761,90 761,314"/><polygon points="761,314 785,314 785,88 761,89 761,314"/><polygon points="301,318 366,318 366,217 301,218 301,318"/><polygon points="366,206 301,207 301,318 366,318 366,206"/><polygon points="486,318 487,317 487,220 486,216 486,318"/><polygon points="785,314 797,315 797,81 785,90 785,314"/><polygon points="552,317 731,318 731,239 552,241 552,317"/><polygon points="417,318 486,318 486,216 417,217 417,318"/><polygon points="731,230 656,231 656,208 618,208 618,232 552,232 552,317 731,318 731,230"/><polygon points="486,204 417,205 417,318 486,318 486,204"/><polygon points="787,315 788,315 788,80 787,81 787,315"/><polygon points="787,315 788,315 788,72 787,73 787,315"/><polygon points="788,72 791,72 798,66 796,66 798,65 808,64 865,20 1034,13 877,98 756,102 768,92 773,92 797,73 787,73 788,72"/><polygon points="768,315 775,316 775,75 768,81 768,315"/><polygon points="768,67 775,61 798,60 791,67 768,67"/><polygon points="775,61 768,67 768,315 775,316 775,61"/><polygon points="775,316 796,316 796,74 775,75 775,316"/><polygon points="796,316 796,66 798,66 798,60 775,61 775,316 796,316"/><polygon points="796,316 798,316 798,73 796,74 796,316"/><polygon points="798,65 796,66 796,316 798,316 798,65"/><polygon points="798,316 808,316 808,72 798,73 798,316"/><polygon points="808,64 798,65 798,316 808,316 808,64"/><polygon points="500,273 498,271 498,321 500,319 500,273"/><polygon points="255,282 241,281 360,281 377,283 271,283 255,282"/><polygon points="377,318 377,291 368,266 360,291 360,320 377,318"/><polygon points="447,256 498,271 500,273 452,259 447,256"/><polygon points="498,321 500,319 500,265 498,263 498,321"/><polygon points="808,316 821,317 821,63 808,72 808,316"/><polygon points="360,320 377,318 377,283 360,281 360,320"/><polygon points="255,266 241,291 360,291 368,266 255,266"/><polygon points="393,320 498,321 498,263 393,264 393,320"/><polygon points="498,321 498,271 447,256 393,272 393,320 498,321"/><polygon points="793,317 799,317 799,58 793,62 793,317"/><polygon points="799,56 793,60 793,317 799,317 799,56"/><polygon points="805,54 831,53 821,61 797,62 793,60 799,56 805,54"/><polygon points="241,320 360,320 360,281 241,281 241,320"/><polygon points="360,291 241,291 241,320 360,320 360,291"/><polygon points="799,317 805,317 805,56 799,58 799,317"/><polygon points="805,54 799,56 799,317 805,317 805,54"/><polygon points="498,266 496,264 496,322 498,321 498,266"/><polygon points="805,317 831,317 831,55 805,56 805,317"/><polygon points="805,317 831,317 831,53 805,54 805,317"/><polygon points="445,253 496,264 498,266 449,256 445,253"/><polygon points="865,20 808,64 808,316 821,317 821,61 831,53 831,317 865,319 865,20"/><polygon points="496,322 498,321 498,259 496,256 496,322"/><polygon points="251,320 258,320 258,289 251,288 251,320"/><polygon points="385,322 496,322 496,256 385,257 385,322"/><polygon points="496,322 496,264 445,253 385,265 385,322 496,322"/><polygon points="235,320 251,320 251,288 235,288 235,320"/><polygon points="831,317 865,319 865,29 831,55 831,317"/><polygon points="791,318 812,319 812,288 791,288 791,318"/><polygon points="819,282 791,282 812,281 842,281 819,282"/><polygon points="239,321 247,320 247,290 239,290 239,321"/><polygon points="812,281 791,282 791,318 812,319 812,281"/><polygon points="251,191 222,179 477,175 480,190 257,194 251,191"/><polygon points="557,322 561,324 561,260 557,263 557,322"/><polygon points="224,321 239,321 239,290 224,290 224,321"/><polygon points="609,242 557,265 561,262 618,237 609,242"/><polygon points="561,262 557,265 557,322 561,324 561,262"/><polygon points="480,186 477,170 477,327 480,323 480,186"/><polygon points="812,319 842,319 842,288 812,288 812,319"/><polygon points="842,281 812,281 812,319 842,319 842,281"/><polygon points="609,263 557,263 561,260 689,259 688,259 695,259 692,260 701,260 689,262 609,263"/><polygon points="235,73 -86,-174 -86,348 235,321 235,73"/><polygon points="865,319 1034,320 1034,22 865,29 865,319"/><polygon points="1034,13 865,20 865,319 1034,320 1034,13"/><polygon points="777,266 752,266 773,263 825,263 799,266 777,266"/><polygon points="752,321 773,323 773,263 752,266 752,321"/><polygon points="469,168 477,170 480,186 473,182 469,168"/><polygon points="857,195 857,219 866,217 866,193 857,195"/><polygon points="777,256 752,264 773,260 801,252 777,256"/><polygon points="477,327 480,323 480,190 477,175 477,327"/><polygon points="692,324 701,324 701,260 692,260 692,324"/><polygon points="701,324 701,273 692,269 692,324 701,324"/><polygon points="857,195 866,193 921,192 911,195 857,195"/><polygon points="810,320 834,322 834,248 810,252 810,320"/><polygon points="837,265 810,265 834,263 862,263 837,265"/><polygon points="561,324 689,325 689,259 561,260 561,324"/><polygon points="846,319 871,321 871,216 846,221 846,319"/><polygon points="773,260 752,264 752,321 773,323 773,260"/><polygon points="689,325 689,266 618,237 561,262 561,324 689,325"/><polygon points="866,193 866,217 921,216 921,192 866,193"/><polygon points="688,325 695,325 695,259 688,259 688,325"/><polygon points="695,325 695,269 688,266 688,325 695,325"/><polygon points="921,216 866,217 857,219 846,219 871,213 1114,210 1070,216 911,218 921,216"/><polygon points="834,263 810,265 810,320 834,322 834,263"/><polygon points="834,248 862,248 837,251 810,252 834,248"/><polygon points="871,216 1114,213 1070,219 911,221 857,221 846,221 871,216"/><polygon points="232,173 222,175 477,170 469,168 232,173"/><polygon points="871,213 846,219 846,319 871,321 871,213"/><polygon points="222,326 477,327 477,175 222,179 222,326"/><polygon points="477,170 222,175 222,326 477,327 477,170"/><polygon points="562,325 568,328 568,262 562,266 562,325"/><polygon points="773,323 825,323 825,263 773,263 773,323"/><polygon points="834,322 862,322 862,248 834,248 834,322"/><polygon points="862,263 834,263 834,322 862,322 862,263"/><polygon points="825,323 825,260 801,252 773,260 773,323 825,323"/><polygon points="607,251 562,269 568,265 619,245 607,251"/></g><g fill="#fff" stroke="#232a30" stroke-linejoin="round" stroke-width="1.4"><polygon points="871,321 1114,322 1114,213 871,216 871,321"/><polygon points="689,324 715,328 715,268 689,272 689,324"/><polygon points="840,323 859,324 859,241 840,244 840,323"/><polygon points="568,265 562,269 562,325 568,328 568,265"/><polygon points="1114,210 871,213 871,321 1114,322 1114,210"/><polygon points="748,260 689,278 715,275 783,255 748,260"/><polygon points="715,275 689,278 689,324 715,328 715,275"/><polygon points="859,241 879,238 991,237 939,243 840,244 859,241"/><polygon points="879,326 879,235 859,226 840,241 840,323 879,326"/><polygon points="-86,342 235,319 235,88 -86,-143 -86,342"/><polygon points="568,328 662,329 662,261 568,262 568,328"/><polygon points="859,324 879,326 879,238 859,241 859,324"/><polygon points="662,329 662,265 619,245 568,265 568,328 662,329"/><polygon points="-64,-125 -64,-53 6,-12 6,-74 -64,-125"/><polygon points="859,226 879,235 991,234 964,225 859,226"/><polygon points="715,328 839,329 839,267 715,268 715,328"/><polygon points="839,329 839,275 783,255 715,275 715,328 839,329"/><polygon points="879,326 991,326 991,237 879,238 879,326"/><polygon points="991,234 879,235 879,326 991,326 991,234"/><polygon points="568,330 572,334 572,247 568,252 568,330"/><polygon points="881,327 916,329 916,241 881,246 881,327"/><polygon points="690,329 722,335 722,252 690,259 690,329"/><polygon points="600,229 568,247 572,241 600,229"/><polygon points="731,253 690,272 722,267 771,244 731,253"/><polygon points="572,241 568,247 568,330 572,334 572,241"/><polygon points="780,236 731,253 771,244 828,224 780,236"/><polygon points="572,247 696,246 679,251 568,252 572,247"/><polygon points="268,329 268,245 258,243 258,330 268,329"/><polygon points="258,330 268,329 268,249 258,247 258,330"/><polygon points="600,229 572,241 696,240 658,228 600,229"/><polygon points="722,267 690,272 690,329 722,334 722,267"/><polygon points="93,245 256,244 273,247 258,247 268,249 190,250 160,250 127,250 101,247 108,247 93,245"/><polygon points="101,330 108,330 108,247 101,247 101,330"/><polygon points="108,330 108,247 135,235 101,235 101,330 108,330"/><polygon points="154,218 256,243 273,247 258,243 268,245 190,226 154,218"/><polygon points="572,334 696,335 696,246 572,247 572,334"/><polygon points="960,333 960,243 916,224 881,253 881,326 960,333"/><polygon points="696,240 572,241 572,334 696,335 696,240"/><polygon points="474,262 470,257 470,338 474,333 474,262"/><polygon points="256,332 273,330 273,247 256,243 256,332"/><polygon points="256,333 273,330 273,247 256,244 256,333"/><polygon points="1146,233 1152,232 1203,231 1136,238 1140,238 1103,241 1046,242 1019,245 881,246 916,241 960,235 1146,233"/><polygon points="378,218 470,257 474,262 393,227 378,218"/><polygon points="93,332 256,333 256,244 93,245 93,332"/><polygon points="256,332 256,243 154,218 93,245 93,332 256,332"/><polygon points="470,338 474,334 474,257 470,251 470,338"/><polygon points="722,335 904,336 904,251 722,252 722,335"/><polygon points="904,336 904,266 880,243 828,224 771,244 722,267 722,334 904,336"/><polygon points="578,335 583,341 583,286 578,287 578,335"/><polygon points="267,337 470,338 470,251 267,253 267,337"/><polygon points="470,338 470,257 378,218 267,258 267,337 470,338"/><polygon points="583,293 578,293 578,335 583,341 583,293"/><polygon points="583,286 691,286 673,287 578,287 583,286"/><polygon points="679,337 708,344 708,245 679,254 679,337"/><polygon points="679,337 708,344 708,251 679,259 679,337"/><polygon points="595,280 597,288 672,288 667,279 595,280"/><polygon points="597,288 583,293 691,293 672,288 597,288"/><polygon points="874,334 950,342 950,249 874,257 874,334"/><polygon points="836,337 851,338 851,287 836,287 836,337"/><polygon points="913,233 874,258 950,250 999,219 913,233"/><polygon points="583,341 691,342 691,286 583,286 583,341"/><polygon points="691,293 583,293 583,341 691,342 691,293"/><polygon points="708,251 776,230 779,229 796,223 749,236 679,259 708,251"/><polygon points="950,250 874,258 874,334 950,342 950,250"/><polygon points="869,341 869,293 851,281 836,294 836,337 869,341"/><polygon points="851,338 869,341 869,286 851,287 851,338"/><polygon points="580,247 589,237 921,233 858,243 869,243 808,253 749,253 679,254 708,245 580,247"/><polygon points="912,281 851,281 869,293 886,293 887,294 934,294 912,281"/><polygon points="869,286 861,286 887,285 914,285 887,286 934,286 894,287 836,287 851,287 869,286"/><polygon points="887,341 934,341 934,286 887,286 887,341"/><polygon points="934,294 887,294 887,341 934,341 934,294"/><polygon points="869,346 869,250 796,223 779,229 858,267 858,346 869,346"/><polygon points="861,341 887,344 887,285 861,286 861,341"/><polygon points="858,346 869,346 869,243 858,243 858,346"/><polygon points="580,343 589,352 589,237 580,247 580,343"/><polygon points="887,284 861,285 861,341 887,344 887,284"/><polygon points="589,263 580,268 580,343 589,352 589,263"/><polygon points="887,344 914,344 914,285 887,285 887,344"/><polygon points="914,284 887,284 887,344 914,344 914,284"/><polygon points="765,188 727,206 580,268 589,263 765,188"/><polygon points="589,352 921,356 921,233 589,237 589,352"/><polygon points="921,355 921,261 765,188 589,263 589,352 921,355"/><polygon points="-19,-12 -19,36 84,87 84,48 -19,-12"/><polygon points="851,351 883,355 883,244 851,249 851,351"/><polygon points="595,354 612,367 612,189 595,209 595,354"/><polygon points="652,221 595,232 612,217 682,203 652,221"/><polygon points="612,217 595,232 595,354 612,367 612,217"/><polygon points="739,357 784,369 784,-8 739,42 739,357"/><polygon points="739,35 739,357 784,369 784,-17 739,35"/><polygon points="883,355 924,362 924,238 883,244 883,355"/><polygon points="883,194 924,209 1066,208 1010,192 883,194"/><polygon points="84,87 -19,36 -1243,-565 -1463,-676 105,97 91,90 84,87"/><polygon points="612,367 768,369 768,186 612,189 612,367"/><polygon points="768,369 768,215 682,203 612,217 612,367 768,369"/><polygon points="3,353 3,127 -71,68 -715,-188 -1319,-322 -1319,500 3,353"/><polygon points="677,368 678,368 678,-6 677,-5 677,368"/><polygon points="726,368 727,368 727,-7 726,-6 726,368"/><polygon points="726,368 727,368 727,-15 726,-14 726,368"/><polygon points="105,97 -1463,-676 -1463,576 105,355 105,97"/><polygon points="935,-116 837,-21 739,35 784,-17 884,-74 851,-85 935,-116"/><polygon points="646,368 674,382 674,-65 646,-4 646,368"/><polygon points="678,368 678,48 712,-2 712,382 713,383 712,-78 677,-13 677,368 678,368"/><polygon points="674,-0 646,49 646,368 674,382 674,-0"/><polygon points="674,-0 712,-2 678,48 646,49 674,-0"/><polygon points="712,-78 773,-82 727,-15 677,-13 712,-78"/><polygon points="773,-82 774,-83 821,-71 726,-14 727,-15 773,-82"/><polygon points="884,-74 821,-71 774,-83 836,-87 831,-84 851,-85 884,-74"/><polygon points="674,382 712,382 712,-67 674,-65 674,382"/><polygon points="674,382 712,382 712,-2 674,-0 674,382"/><polygon points="712,382 712,383 712,-68 712,-67 712,382"/><polygon points="-1319,498 3,353 3,105 -1319,-404 -1319,498"/><polygon points="712,-78 713,383 773,383 773,-82 712,-78"/><polygon points="712,383 773,383 773,-72 712,-68 712,383"/><polygon points="773,383 774,384 774,-73 773,-72 773,383"/><polygon points="774,-83 773,-82 773,383 774,384 774,-83"/><polygon points="774,384 836,385 836,-76 774,-73 774,384"/><polygon points="774,384 836,384 836,-87 774,-83 774,384"/><polygon points="922,-176 1652,-1016 2158,-1597 3547,-1924 1035,-86 1040,-86 870,37 739,42 784,-8 726,-6 727,-7 677,-5 678,-6 646,-4 674,-65 712,-67 712,-68 773,-72 774,-73 836,-76 922,-176"/><polygon points="700,-8 700,187 739,164 739,-74 700,-8"/><polygon points="700,-8 739,-74 903,-84 833,-15 700,-8"/><polygon points="836,385 922,408 922,-176 836,-76 836,385"/><polygon points="-1463,577 105,355 105,109 -1463,-617 -1463,577"/><polygon points="668,384 718,413 718,-51 668,36 668,384"/><polygon points="443,110 24,-877 24,740 443,368 443,110"/><polygon points="922,-235 1057,-246 934,-124 831,-117 922,-235"/><polygon points="718,151 668,188 668,384 718,413 718,151"/><polygon points="-851,624 267,358 267,48 -851,-1059 -851,624"/><polygon points="903,160 739,164 700,187 668,188 718,151 942,146 903,160"/><polygon points="15,-619 12,-580 366,30 341,-30 15,-619"/><polygon points="-604,-410 -1373,-895 -851,-1059 267,48 119,55 -637,-405 -604,-410"/><polygon points="-285,-767 -285,-157 -851,-478 -851,620 267,357 267,67 102,-83 102,-332 -34,-538 -34,-435 -285,-767"/><polygon points="739,-74 739,164 903,160 903,-84 739,-74"/><polygon points="12,-580 12,-567 366,33 366,30 12,-580"/><polygon points="-502,-651 -935,-1053 24,-1382 443,30 409,31 366,34 341,35 234,40 -255,-396 -369,-499 -343,-503 -502,-651"/><polygon points="5387,1057 5386,-375 3271,-83 3271,-361 1394,90 1291,75 1052,223 1052,279 924,283 924,209 883,194 851,225 851,351 5387,1057"/><polygon points="-29,-524 77,-498 257,-176 191,-196 -29,-524"/><polygon points="77,-498 77,-455 257,-150 257,-176 77,-498"/><polygon points="718,413 942,417 942,-64 718,-51 718,413"/><polygon points="942,146 718,151 718,413 942,417 942,146"/><polygon points="67,-776 24,-877 443,110 409,31 67,-776"/><polygon points="724,420 758,441 758,-295 724,-211 724,420"/><polygon points="724,421 758,441 758,-176 724,-109 724,421"/><polygon points="24,740 443,368 443,30 24,-1382 24,740"/><polygon points="724,-109 758,-176 1024,-197 950,-124 724,-109"/><polygon points="1652,-1033 922,-182 922,-235 831,-117 831,-84 836,-87 836,384 2158,738 2157,-1275 1652,-793 1652,-1033"/><polygon points="77,-455 77,-498 -29,-524 -105,-468 -105,-427 77,-455"/><polygon points="737,-293 1499,-2334 3570,-3135 1071,-326 1025,-321 950,-230 724,-211 758,-295 737,-293"/><polygon points="-255,-568 -369,-511 12,-580 15,-619 -16,-613 -231,-573 -255,-568"/><polygon points="-342,509 -342,-504 12,-567 12,-580 -369,-511 -369,507 -342,509"/><polygon points="818,-375 737,-185 1499,-1853 1414,-1707 818,-375"/><polygon points="1071,-402 818,-375 1414,-1707 2318,-1977 1071,-402"/><polygon points="737,440 1499,932 1499,-2334 737,-293 737,440"/><polygon points="1499,-1853 737,-185 737,440 1500,933 1499,-1853"/><polygon points="-502,-652 -935,-646 24,-877 67,-776 -502,-652"/><polygon points="-935,653 24,740 24,-1382 -935,-1053 -935,653"/><polygon points="24,-877 -935,-646 -935,653 24,740 24,-877"/></g></svg>